<svg width="100" height="100" viewBox="0 0 100 100" fill="none" xmlns="http://www.w3.org/2000/svg">
<path d="M50 4C24.638 4 4 24.638 4 50C4 75.362 24.638 96 50 96C75.362 96 96 75.362 96 50C96 24.638 75.362 4 50 4ZM67.42 64.58C68.2 65.36 68.2 66.64 67.42 67.42C67.02 67.8 66.52 68 66 68C65.48 68 64.98 67.8 64.58 67.42L50 52.84L35.42 67.42C35.02 67.8 34.52 68 34 68C33.48 68 32.98 67.8 32.58 67.42C31.8 66.64 31.8 65.36 32.58 64.58L47.16 50L32.58 35.42C31.8 34.64 31.8 33.36 32.58 32.58C33.36 31.8 34.64 31.8 35.42 32.58L50 47.16L64.58 32.58C65.36 31.8 66.64 31.8 67.42 32.58C68.2 33.36 68.2 34.64 67.42 35.42L52.84 50L67.42 64.58Z" fill="#6B7280"/>
</svg>
