<svg width="100" height="100" viewBox="0 0 100 100" fill="none" xmlns="http://www.w3.org/2000/svg">
<path d="M50 4C24.6191 4 4 24.6191 4 50C4 75.3809 24.6191 96 50 96C75.3809 96 96 75.3809 96 50C96 24.6191 75.3809 4 50 4ZM50 8C73.2191 8 92 26.7809 92 50C92 73.2191 73.2191 92 50 92C26.7809 92 8 73.2191 8 50C8 26.7809 26.7809 8 50 8ZM65.9805 31.9727C65.4529 31.9851 64.9517 32.2056 64.5859 32.5859L50 47.1719L35.4141 32.5859C35.2277 32.3943 35.0048 32.2421 34.7586 32.1381C34.5123 32.0341 34.2478 31.9805 33.9805 31.9805C33.5826 31.9806 33.1938 32.0993 32.8638 32.3216C32.5338 32.5438 32.2775 32.8594 32.1278 33.228C31.9781 33.5966 31.9417 34.0015 32.0233 34.3909C32.1049 34.7803 32.3008 35.1366 32.5859 35.4141L47.1719 50L32.5859 64.5859C32.394 64.7702 32.2407 64.991 32.1352 65.2352C32.0296 65.4795 31.9738 65.7423 31.9711 66.0084C31.9684 66.2745 32.0188 66.5385 32.1194 66.7848C32.22 67.0312 32.3687 67.255 32.5569 67.4431C32.745 67.6313 32.9688 67.78 33.2152 67.8806C33.4615 67.9812 33.7255 68.0316 33.9916 68.0289C34.2577 68.0262 34.5205 67.9704 34.7648 67.8648C35.009 67.7593 35.2298 67.606 35.4141 67.4141L50 52.8281L64.5859 67.4141C64.7702 67.606 64.991 67.7593 65.2352 67.8648C65.4795 67.9704 65.7423 68.0262 66.0084 68.0289C66.2745 68.0316 66.5385 67.9812 66.7848 67.8806C67.0312 67.78 67.255 67.6313 67.4431 67.4431C67.6313 67.255 67.78 67.0312 67.8806 66.7848C67.9812 66.5385 68.0316 66.2745 68.0289 66.0084C68.0262 65.7423 67.9704 65.4795 67.8648 65.2352C67.7593 64.991 67.606 64.7702 67.4141 64.5859L52.8281 50L67.4141 35.4141C67.7045 35.1348 67.9038 34.7742 67.9859 34.3797C68.068 33.9852 68.029 33.5751 67.8741 33.2031C67.7191 32.8312 67.4554 32.5147 67.1175 32.2951C66.7796 32.0755 66.3833 31.9632 65.9805 31.9727Z" fill="#6B7280"/>
</svg>
