<svg width="100" height="100" viewBox="0 0 100 100" fill="none" xmlns="http://www.w3.org/2000/svg">
<path d="M49.9697 28.0002C49.4462 28.008 48.9541 28.219 48.5869 28.5861L8.58687 68.5861C8.06344 69.0861 7.8525 69.8361 8.04 70.5315C8.21968 71.2346 8.76656 71.7815 9.46969 71.9611C10.165 72.1486 10.915 71.9377 11.415 71.4143L50.0009 32.8283L88.5869 71.4143C89.0869 71.9377 89.8369 72.1486 90.5322 71.9611C91.2353 71.7815 91.7822 71.2346 91.9619 70.5315C92.1494 69.8361 91.9384 69.0861 91.415 68.5861L51.415 28.5861C51.0322 28.2033 50.5087 27.9924 49.9697 28.0002Z" fill="#6B7280"/>
</svg>
