<svg width="100" height="100" viewBox="0 0 100 100" fill="none" xmlns="http://www.w3.org/2000/svg">
<path d="M39.9687 3.9729C39.4389 3.98118 38.9341 4.1993 38.565 4.57939C38.1959 4.95948 37.9927 5.47048 37.9999 6.00024V16.0002C37.9962 16.2653 38.0451 16.5284 38.144 16.7743C38.2428 17.0203 38.3895 17.2441 38.5756 17.4328C38.7617 17.6216 38.9834 17.7715 39.2279 17.8738C39.4725 17.9761 39.7349 18.0287 39.9999 18.0287C40.265 18.0287 40.5274 17.9761 40.7719 17.8738C41.0164 17.7715 41.2382 17.6216 41.4242 17.4328C41.6103 17.2441 41.757 17.0203 41.8559 16.7743C41.9547 16.5284 42.0037 16.2653 41.9999 16.0002V6.00024C42.0036 5.73267 41.9535 5.46707 41.8527 5.21919C41.7519 4.97131 41.6023 4.74618 41.4129 4.55714C41.2235 4.3681 40.9981 4.21898 40.75 4.11863C40.5019 4.01828 40.2362 3.96872 39.9687 3.9729ZM91.9609 5.98071C91.4413 5.99619 90.9481 6.21335 90.5859 6.58618L6.58586 90.5862C6.39391 90.7705 6.24067 90.9912 6.1351 91.2355C6.02953 91.4797 5.97375 91.7426 5.97105 92.0087C5.96834 92.2748 6.01875 92.5387 6.11933 92.7851C6.21991 93.0314 6.36863 93.2552 6.55679 93.4434C6.74495 93.6315 6.96876 93.7803 7.21511 93.8808C7.46147 93.9814 7.72541 94.0318 7.99149 94.0291C8.25757 94.0264 8.52044 93.9706 8.7647 93.8651C9.00896 93.7595 9.22969 93.6063 9.41398 93.4143L93.414 9.41431C93.703 9.13338 93.9004 8.7717 93.9803 8.37666C94.0602 7.98162 94.0189 7.57165 93.8619 7.20048C93.7048 6.82931 93.4392 6.51425 93.1 6.29659C92.7608 6.07893 92.3637 5.96883 91.9609 5.98071ZM15.9374 13.9377C15.5396 13.9378 15.1508 14.0566 14.8207 14.2788C14.4907 14.5011 14.2345 14.8167 14.0848 15.1853C13.935 15.5539 13.8987 15.9588 13.9803 16.3482C14.0619 16.7376 14.2578 17.0938 14.5429 17.3713L21.6171 24.4456C21.8014 24.6375 22.0221 24.7908 22.2664 24.8963C22.5107 25.0019 22.7735 25.0577 23.0396 25.0604C23.3057 25.0631 23.5696 25.0127 23.816 24.9121C24.0623 24.8115 24.2862 24.6628 24.4743 24.4746C24.6625 24.2865 24.8112 24.0627 24.9118 23.8163C25.0124 23.57 25.0628 23.306 25.0601 23.0399C25.0573 22.7738 25.0016 22.511 24.896 22.2667C24.7904 22.0225 24.6372 21.8017 24.4452 21.6174L17.371 14.5432C17.1846 14.3516 16.9617 14.1993 16.7155 14.0953C16.4693 13.9913 16.2047 13.9378 15.9374 13.9377ZM64.0038 13.9377C63.4842 13.9532 62.9911 14.1704 62.6288 14.5432L55.5546 21.6174C55.3627 21.8017 55.2094 22.0225 55.1038 22.2667C54.9983 22.511 54.9425 22.7738 54.9398 23.0399C54.9371 23.306 54.9875 23.57 55.0881 23.8163C55.1886 24.0627 55.3374 24.2865 55.5255 24.4746C55.7137 24.6628 55.9375 24.8115 56.1839 24.9121C56.4302 25.0127 56.6942 25.0631 56.9602 25.0604C57.2263 25.0577 57.4892 25.0019 57.7334 24.8963C57.9777 24.7908 58.1984 24.6375 58.3827 24.4456L65.457 17.3713C65.746 17.0904 65.9434 16.7287 66.0233 16.3337C66.1032 15.9387 66.0619 15.5287 65.9048 15.1575C65.7477 14.7863 65.4822 14.4713 65.143 14.2536C64.8038 14.036 64.4067 13.9259 64.0038 13.9377ZM40.0038 22.0159C35.3946 22.0159 30.7834 23.7715 27.2734 27.2815C23.8714 30.6795 21.9999 35.204 21.9999 40.012C21.9999 44.818 23.8734 49.3366 27.2734 52.7346C28.2834 53.7446 29.3886 54.587 30.5546 55.301L33.4921 52.3635C32.2741 51.7315 31.1235 50.9285 30.1015 49.9065C27.4575 47.2625 25.9999 43.75 25.9999 40.012C25.9999 36.272 27.4575 32.7536 30.1015 30.1096C32.8315 27.3816 36.4139 26.0159 39.9999 26.0159C43.5859 26.0159 47.1684 27.3816 49.8984 30.1096C50.9084 31.1196 51.7212 32.2663 52.3632 33.4963L55.3007 30.5588C54.5787 29.3848 53.7284 28.2795 52.7304 27.2815C49.2214 23.7715 44.6131 22.0159 40.0038 22.0159ZM89.9687 31.9729C89.4389 31.9812 88.9341 32.1993 88.565 32.5794C88.1959 32.9595 87.9927 33.4705 87.9999 34.0002V36.0002H85.9999C85.7349 35.9965 85.4718 36.0455 85.2258 36.1443C84.9799 36.2431 84.7561 36.3898 84.5673 36.5759C84.3786 36.762 84.2287 36.9838 84.1264 37.2283C84.0241 37.4728 83.9714 37.7352 83.9714 38.0002C83.9714 38.2653 84.0241 38.5277 84.1264 38.7722C84.2287 39.0167 84.3786 39.2385 84.5673 39.4246C84.7561 39.6107 84.9799 39.7574 85.2258 39.8562C85.4718 39.955 85.7349 40.004 85.9999 40.0002H87.9999V42.0002C87.9962 42.2653 88.0451 42.5284 88.144 42.7743C88.2428 43.0203 88.3895 43.2441 88.5756 43.4328C88.7617 43.6216 88.9834 43.7715 89.228 43.8738C89.4725 43.9761 89.7349 44.0287 89.9999 44.0287C90.265 44.0287 90.5274 43.9761 90.7719 43.8738C91.0164 43.7715 91.2382 43.6216 91.4242 43.4328C91.6103 43.2441 91.757 43.0203 91.8559 42.7743C91.9547 42.5284 92.0037 42.2653 91.9999 42.0002V40.0002H93.9999C94.2649 40.004 94.5281 39.955 94.774 39.8562C95.0199 39.7574 95.2438 39.6107 95.4325 39.4246C95.6213 39.2385 95.7711 39.0167 95.8734 38.7722C95.9757 38.5277 96.0284 38.2653 96.0284 38.0002C96.0284 37.7352 95.9757 37.4728 95.8734 37.2283C95.7711 36.9838 95.6213 36.762 95.4325 36.5759C95.2438 36.3898 95.0199 36.2431 94.774 36.1443C94.5281 36.0455 94.2649 35.9965 93.9999 36.0002H91.9999V34.0002C92.0036 33.7327 91.9535 33.4671 91.8527 33.2192C91.7519 32.9713 91.6023 32.7462 91.4129 32.5571C91.2235 32.3681 90.9981 32.219 90.75 32.1186C90.5019 32.0183 90.2362 31.9687 89.9687 31.9729ZM5.99992 38.0002C5.7349 37.9965 5.47177 38.0455 5.22583 38.1443C4.9799 38.2431 4.75606 38.3898 4.56732 38.5759C4.37858 38.762 4.2287 38.9838 4.12641 39.2283C4.02411 39.4728 3.97144 39.7352 3.97144 40.0002C3.97144 40.2653 4.02411 40.5277 4.12641 40.7722C4.2287 41.0167 4.37858 41.2385 4.56732 41.4246C4.75606 41.6107 4.9799 41.7574 5.22583 41.8562C5.47177 41.955 5.7349 42.004 5.99992 42.0002H15.9999C16.2649 42.004 16.5281 41.955 16.774 41.8562C17.0199 41.7574 17.2438 41.6107 17.4325 41.4246C17.6213 41.2385 17.7711 41.0167 17.8734 40.7722C17.9757 40.5277 18.0284 40.2653 18.0284 40.0002C18.0284 39.7352 17.9757 39.4728 17.8734 39.2283C17.7711 38.9838 17.6213 38.762 17.4325 38.5759C17.2438 38.3898 17.0199 38.2431 16.774 38.1443C16.5281 38.0455 16.2649 37.9965 15.9999 38.0002H5.99992ZM74.9999 50.0002C63.4252 50.0002 53.9999 59.4255 53.9999 71.0002C53.9999 82.575 63.4252 92.0002 74.9999 92.0002C86.5747 92.0002 95.9999 82.575 95.9999 71.0002C95.9999 70.5257 95.9598 70.155 95.9452 69.8831C95.9226 69.4601 95.7662 69.0552 95.4987 68.7268C95.2312 68.3984 94.8663 68.1634 94.4566 68.0557C94.047 67.9479 93.6137 67.973 93.2192 68.1273C92.8248 68.2817 92.4895 68.5572 92.2616 68.9143C90.3069 71.9717 86.9089 74.0002 82.9999 74.0002C76.9007 74.0002 71.9999 69.0995 71.9999 63.0002C71.9999 59.0913 74.0284 55.6932 77.0859 53.7385C77.443 53.5107 77.7185 53.1754 77.8728 52.7809C78.0271 52.3865 78.0522 51.9532 77.9445 51.5435C77.8368 51.1339 77.6018 50.769 77.2734 50.5015C76.9449 50.234 76.5401 50.0776 76.1171 50.0549C75.8452 50.0404 75.4745 50.0002 74.9999 50.0002ZM70.6874 54.8674C69.104 57.2436 67.9999 59.9389 67.9999 63.0002C67.9999 71.261 74.7391 78.0002 82.9999 78.0002C86.0612 78.0002 88.7566 76.8961 91.1327 75.3127C89.1938 82.5699 82.8822 88.0002 74.9999 88.0002C65.5867 88.0002 57.9999 80.4135 57.9999 71.0002C57.9999 63.118 63.4303 56.8063 70.6874 54.8674ZM22.9921 54.9495C22.4725 54.9649 21.9794 55.1821 21.6171 55.5549L14.5429 62.6292C14.3509 62.8134 14.1977 63.0342 14.0921 63.2784C13.9866 63.5227 13.9308 63.7856 13.9281 64.0516C13.9254 64.3177 13.9758 64.5817 14.0764 64.828C14.177 65.0744 14.3257 65.2982 14.5138 65.4863C14.702 65.6745 14.9258 65.8232 15.1722 65.9238C15.4185 66.0244 15.6825 66.0748 15.9485 66.0721C16.2146 66.0694 16.4775 66.0136 16.7217 65.908C16.966 65.8025 17.1867 65.6492 17.371 65.4573L24.4452 58.3831C24.7342 58.1021 24.9316 57.7404 25.0116 57.3454C25.0915 56.9504 25.0502 56.5404 24.8931 56.1692C24.736 55.7981 24.4705 55.483 24.1313 55.2653C23.792 55.0477 23.395 54.9376 22.9921 54.9495ZM43.9687 83.9729C43.4389 83.9812 42.9341 84.1993 42.565 84.5794C42.1959 84.9595 41.9927 85.4705 41.9999 86.0002V88.0002H39.9999C39.7349 87.9965 39.4718 88.0455 39.2258 88.1443C38.9799 88.2431 38.7561 88.3898 38.5673 88.5759C38.3786 88.762 38.2287 88.9838 38.1264 89.2283C38.0241 89.4728 37.9714 89.7352 37.9714 90.0002C37.9714 90.2653 38.0241 90.5277 38.1264 90.7722C38.2287 91.0167 38.3786 91.2385 38.5673 91.4246C38.7561 91.6106 38.9799 91.7574 39.2258 91.8562C39.4718 91.955 39.7349 92.004 39.9999 92.0002H41.9999V94.0002C41.9962 94.2653 42.0451 94.5284 42.144 94.7743C42.2428 95.0203 42.3895 95.2441 42.5756 95.4328C42.7617 95.6216 42.9834 95.7715 43.2279 95.8738C43.4725 95.9761 43.7349 96.0287 43.9999 96.0287C44.265 96.0287 44.5274 95.9761 44.7719 95.8738C45.0164 95.7715 45.2382 95.6216 45.4242 95.4328C45.6103 95.2441 45.757 95.0203 45.8559 94.7743C45.9547 94.5284 46.0037 94.2653 45.9999 94.0002V92.0002H47.9999C48.2649 92.004 48.5281 91.955 48.774 91.8562C49.0199 91.7574 49.2438 91.6106 49.4325 91.4246C49.6213 91.2385 49.7711 91.0167 49.8734 90.7722C49.9757 90.5277 50.0284 90.2653 50.0284 90.0002C50.0284 89.7352 49.9757 89.4728 49.8734 89.2283C49.7711 88.9838 49.6213 88.762 49.4325 88.5759C49.2438 88.3898 49.0199 88.2431 48.774 88.1443C48.5281 88.0455 48.2649 87.9965 47.9999 88.0002H45.9999V86.0002C46.0036 85.7327 45.9535 85.4671 45.8527 85.2192C45.7519 84.9713 45.6023 84.7462 45.4129 84.5571C45.2235 84.3681 44.9981 84.219 44.75 84.1186C44.5019 84.0183 44.2362 83.9687 43.9687 83.9729Z" fill="#6B7280"/>
</svg>
