<svg width="100" height="100" viewBox="0 0 100 100" fill="none" xmlns="http://www.w3.org/2000/svg">
<path d="M0 14V85.8037H52.462C51.6861 84.569 51.0543 83.2347 50.6155 81.8146H3.98909V76.8555L33.2178 53.7429C35.6499 55.8623 40.0353 59.6858 40.5921 60.1706C43.985 63.1244 47.5783 63.8637 49.8637 63.8637C52.1476 63.8637 55.7419 63.1286 59.1352 60.1745C59.6935 59.6885 64.0871 55.8592 66.529 53.7312L99.7273 79.1149V14H0ZM3.98909 17.9891H95.7382V22.9832C94.8993 23.7145 59.4614 54.6007 56.5134 57.1671C53.927 59.4188 51.2935 59.8746 49.8637 59.8746C48.4352 59.8746 45.8007 59.4152 43.2139 57.1632C40.2659 54.5968 4.82804 23.7106 3.98909 22.9794V17.9891ZM3.98909 28.2696C7.46931 31.3029 19.7054 41.967 30.1558 51.0744L3.98909 71.7717V28.2696ZM95.7382 28.2735V71.0861L69.5949 51.0588C80.0477 41.9493 92.261 31.3041 95.7382 28.2735ZM65.82 65.8582C59.2348 65.8582 53.8527 71.2402 53.8527 77.8255C53.8527 84.4107 59.2348 89.7928 65.82 89.7928H92.5984L86.3148 96.3958C86.1342 96.5856 85.9927 96.8091 85.8985 97.0536C85.8043 97.298 85.7592 97.5586 85.7657 97.8205C85.7788 98.3495 86.0016 98.8515 86.3849 99.2162C86.7682 99.5809 87.2807 99.7784 87.8096 99.7653C88.3385 99.7521 88.8406 99.5294 89.2053 99.1461L100 87.7982L89.2053 76.4503C89.0242 76.2548 88.8058 76.0975 88.5629 75.9878C88.32 75.878 88.0576 75.8181 87.7912 75.8115C87.3943 75.8014 87.0035 75.9099 86.6687 76.1232C86.3339 76.3366 86.0703 76.6449 85.9118 77.0089C85.7532 77.3729 85.7069 77.7758 85.7787 78.1663C85.8505 78.5567 86.0371 78.9169 86.3148 79.2006L92.5984 85.8037H65.82C61.3914 85.8037 57.8418 82.2541 57.8418 77.8255C57.8418 73.3968 61.3914 69.8473 65.82 69.8473C70.2487 69.8473 73.7982 73.3968 73.7982 77.8255C73.7982 79.2855 73.3741 80.6358 72.688 81.8146H77.09C77.3513 81.0799 77.5188 80.3061 77.6354 79.5162L77.7873 79.82V77.8255C77.7873 71.2402 72.4053 65.8582 65.82 65.8582Z" fill="#6B7280"/>
</svg>
