<svg width="100" height="100" viewBox="0 0 100 100" fill="none" xmlns="http://www.w3.org/2000/svg">
<path d="M79.9261 16.0091C79.8404 16.0247 79.7547 16.0483 79.6767 16.0718C78.7492 16.2835 78.0945 17.1223 78.1179 18.0788V77.3483L63.7766 62.9229C63.4024 62.5231 62.888 62.3036 62.3424 62.2957C61.5318 62.3036 60.807 62.7975 60.503 63.5579C60.2068 64.3106 60.3861 65.1808 60.9706 65.7453L78.6791 83.6202L80.1132 85L81.5473 83.6202L99.2557 65.7453C99.8481 65.2592 100.121 64.483 99.9494 63.7304C99.778 62.9856 99.1934 62.3976 98.4529 62.2252C97.7047 62.0527 96.9331 62.3271 96.4498 62.9229L82.1085 77.3483V18.0788C82.1319 17.4986 81.8981 16.942 81.485 16.55C81.0641 16.1502 80.4951 15.9542 79.9261 16.0091ZM1.73474 16.0718C0.635763 16.2286 -0.135863 17.2556 0.0200207 18.361C0.175905 19.4665 1.19694 20.2426 2.29593 20.0858H52.1788C53.2778 20.0858 54.1741 19.1842 54.1741 18.0788C54.1741 16.9734 53.2778 16.0718 52.1788 16.0718H2.29593C2.23357 16.0718 2.17122 16.0718 2.10887 16.0718C2.04651 16.0718 1.98416 16.0718 1.9218 16.0718C1.85945 16.0718 1.7971 16.0718 1.73474 16.0718ZM1.73474 32.1279C0.635763 32.2847 -0.135863 33.3117 0.0200207 34.4171C0.175905 35.5225 1.19694 36.2987 2.29593 36.1419H38.2116C39.3106 36.1419 40.2069 35.2403 40.2069 34.1349C40.2069 33.0294 39.3106 32.1279 38.2116 32.1279H2.29593C2.23357 32.1279 2.17122 32.1279 2.10887 32.1279C2.04651 32.1279 1.98416 32.1279 1.9218 32.1279C1.85945 32.1279 1.7971 32.1279 1.73474 32.1279ZM1.9218 48.1839C0.822824 48.2858 0.012227 49.2737 0.113551 50.3791C0.214876 51.4845 1.19694 52.2999 2.29593 52.1979H30.2303C31.3293 52.1979 32.2256 51.2964 32.2256 50.1909C32.2256 49.0855 31.3293 48.1839 30.2303 48.1839H2.29593C2.23357 48.1839 2.17122 48.1839 2.10887 48.1839C2.04651 48.1839 1.98416 48.1839 1.9218 48.1839ZM1.9218 64.3027C0.978707 64.5379 0.347377 65.4317 0.440907 66.4116C0.534439 67.3838 1.32165 68.1443 2.29593 68.1913H22.2491C23.0207 68.3246 23.8001 67.9875 24.2288 67.3289C24.6575 66.6704 24.6575 65.8237 24.2288 65.1651C23.8001 64.5066 23.0207 64.1694 22.2491 64.3027H2.29593C2.17122 64.287 2.04651 64.287 1.9218 64.3027ZM1.9218 80.3588C0.916354 80.5313 0.22267 81.4564 0.3162 82.4756C0.417525 83.4947 1.27489 84.2709 2.29593 84.2474H14.2678C15.0161 84.3415 15.7487 83.9887 16.154 83.3536C16.5515 82.7108 16.5515 81.8954 16.154 81.2525C15.7487 80.6175 15.0161 80.2647 14.2678 80.3588H2.29593C2.17122 80.3431 2.04651 80.3431 1.9218 80.3588Z" fill="#6B7280"/>
</svg>
