<svg width="100" height="100" viewBox="0 0 100 100" fill="none" xmlns="http://www.w3.org/2000/svg">
<path d="M5 1V95.0783H38.2603C38.5196 95.082 38.777 95.034 39.0175 94.9371C39.2581 94.8403 39.4771 94.6965 39.6617 94.5141C39.8464 94.3318 39.993 94.1145 40.0931 93.8749C40.1931 93.6352 40.2447 93.3781 40.2447 93.1183C40.2447 92.8586 40.1931 92.6014 40.0931 92.3618C39.993 92.1222 39.8464 91.9049 39.6617 91.7225C39.4771 91.5402 39.2581 91.3964 39.0175 91.2995C38.777 91.2027 38.5196 91.1547 38.2603 91.1584H8.91298V4.91993H44.1298V32.3594H71.5206V53.919C71.5169 54.1788 71.5648 54.4366 71.6615 54.6776C71.7582 54.9187 71.9017 55.138 72.0838 55.323C72.2658 55.5079 72.4827 55.6548 72.7219 55.7551C72.9611 55.8553 73.2178 55.9069 73.4771 55.9069C73.7364 55.9069 73.9931 55.8553 74.2323 55.7551C74.4715 55.6548 74.6884 55.5079 74.8704 55.323C75.0525 55.138 75.196 54.9187 75.2927 54.6776C75.3894 54.4366 75.4373 54.1788 75.4336 53.919V29.5879L46.8964 1H5ZM48.0427 7.69144L68.754 28.4395H48.0427V7.69144ZM18.6954 38.2393V42.1593H61.7382V38.2393H18.6954ZM86.9776 49.8039C84.9233 49.8039 82.8682 50.5863 81.3031 52.1543L79.935 53.5286L80.0191 53.6128L49.7891 83.8927C49.554 84.129 49.383 84.4215 49.2923 84.7426L45.964 96.5023C45.8691 96.8358 45.8642 97.1885 45.9497 97.5245C46.0353 97.8605 46.2083 98.1677 46.4511 98.4148C46.6939 98.662 46.9978 98.8401 47.3318 98.9312C47.6658 99.0223 48.0179 99.0229 48.3523 98.9332L60.0912 95.798C60.422 95.7092 60.7238 95.5349 60.9663 95.2927L91.8765 64.5228C92.0761 64.3295 92.2325 64.0959 92.335 63.8375L92.6522 63.5236C95.7826 60.3877 95.7826 55.2903 92.6522 52.1543C91.087 50.5863 89.0319 49.8039 86.9776 49.8039ZM18.6954 49.9991V53.919H61.7382V49.9991H18.6954ZM82.7857 56.3843L88.6246 62.2336L58.578 92.1422L52.8499 86.5341L52.9149 86.3044L82.7857 56.3843ZM18.6954 61.7589V65.6788H61.7382V61.7589H18.6954ZM18.6954 73.5187V77.4386H44.1298V73.5187H18.6954Z" fill="#6B7280"/>
</svg>
