<svg width="100" height="100" viewBox="0 0 100 100" fill="none" xmlns="http://www.w3.org/2000/svg">
<path d="M14 2V94H72.2188L68.7422 90H18V6H56V31.9922H82V56H86V30.3281C86.0357 30.1121 86.0357 29.8918 86 29.6758V29.1289L58.7852 2H14ZM60 8.79297L79.1328 27.9922H60V8.79297ZM45.5625 36C44.0579 36 42.5077 36.8542 41.8203 38.1133C41.133 39.3724 41.0931 40.7273 41.2617 42.1328C41.5276 44.3484 42.5344 46.8631 43.8398 49.4258C43.1908 51.6183 42.8774 53.5257 41.9023 55.8594C40.6602 58.8322 39.138 61.1957 37.6719 63.6719C35.7663 64.5621 33.363 65.3589 31.957 66.2812C30.3781 67.317 29.1319 68.2521 28.3984 69.7266C28.0317 70.4638 27.8444 71.5066 28.207 72.4531C28.5681 73.3958 29.3161 74.0143 30.0898 74.418C31.727 75.2783 33.6199 74.7437 34.9883 73.8203C36.3577 72.8963 37.5796 71.5466 38.8047 69.8984C39.4251 69.0638 39.9169 67.7099 40.5234 66.7344C42.4803 65.8644 43.8719 64.9721 46.0977 64.2031C49.1068 63.1636 51.7868 62.7301 54.5977 62.1172C56.9523 63.7069 59.4569 64.9336 62.1875 64.9336C63.7339 64.9336 64.9274 64.8687 66.0938 64.2344C67.2601 63.6001 67.9648 62.0768 67.9648 60.9141C67.9648 59.9667 67.5474 58.9631 66.8906 58.3125C66.2339 57.6619 65.4481 57.3206 64.6484 57.1055C63.0492 56.6751 61.2375 56.6996 59.1523 56.918C58.0483 57.0336 56.5776 57.6144 55.3516 57.8477C55.19 57.7166 55.028 57.662 54.8672 57.5234C52.372 55.3729 50.0366 52.4031 48.3047 49.4531C48.1978 49.271 48.2154 49.1547 48.1133 48.9727C48.5331 47.3906 49.3636 45.5588 49.5508 44.1719C49.8086 42.2609 49.8649 40.5877 49.4023 39.0547C49.1711 38.2882 48.7796 37.519 48.0977 36.9219C47.4157 36.3248 46.4589 36 45.5625 36ZM45.3945 39.9844C45.4204 39.9859 45.4519 39.9999 45.4961 40.0078C45.5041 40.0204 45.5149 40.0142 45.5742 40.2109C45.6847 40.5771 45.6189 41.6179 45.582 42.5391C45.5342 42.301 45.2597 41.8673 45.2344 41.6562C45.1225 40.7242 45.2711 40.1357 45.3281 40.0312C45.3486 39.9938 45.3687 39.9828 45.3945 39.9844ZM46.6055 54.0195C47.8366 55.7949 49.2088 57.4444 50.7383 58.9727C48.6879 59.5189 46.8555 59.7093 44.793 60.4219C44.3597 60.5716 44.1039 60.775 43.6758 60.9297C44.2878 59.6583 45.0436 58.7192 45.5938 57.4023C46.092 56.2098 46.1754 55.2059 46.6055 54.0195ZM76 60V78H66L83.3867 98.0078L100 78H90V60H76ZM80 64H86V82H92L83.3867 92L74 82H80V64Z" fill="#6B7280"/>
</svg>
