<svg width="100" height="100" viewBox="0 0 100 100" fill="none" xmlns="http://www.w3.org/2000/svg">
<path d="M50 26C23.3359 26 2.5 50.6875 2.5 50.6875C1.84375 51.4375 1.84375 52.5625 2.5 53.3125C2.5 53.3125 23.3359 78 50 78C76.6641 78 97.5 53.3125 97.5 53.3125C98.1562 52.5625 98.1562 51.4375 97.5 50.6875C97.5 50.6875 76.6641 26 50 26ZM50 30C55.2578 30 60.2812 31.0859 64.9375 32.75C68.0625 36.2812 70 40.8984 70 46C70 57.0703 61.0703 66 50 66C38.9297 66 30 57.0703 30 46C30 40.8984 31.875 36.2812 35 32.75C39.6719 31.0781 44.7266 30 50 30ZM28.375 35.6875C26.875 38.8125 26 42.3125 26 46C26 59.2344 36.7656 70 50 70C63.2344 70 74 59.2344 74 46C74 42.3281 73.1641 38.8125 71.6875 35.6875C82.9844 41.4297 91.1094 49.7578 93.1875 52C89.9375 55.5156 71.9453 74 50 74C28.0547 74 10.0625 55.5156 6.8125 52C8.89063 49.75 17.0547 41.4297 28.375 35.6875ZM50 36C44.4766 36 40 40.4766 40 46C40 51.5234 44.4766 56 50 56C55.5234 56 60 51.5234 60 46C60 40.4766 55.5234 36 50 36Z" fill="#6B7280"/>
</svg>
