<svg width="100" height="100" viewBox="0 0 100 100" fill="none" xmlns="http://www.w3.org/2000/svg">
<path d="M7.62526 4C6.67214 4.17969 5.98464 5.02344 6.00026 6V12C6.00807 12.5156 6.20339 13.0078 6.56276 13.375L38.0003 46.75V82C38.0159 82.6953 38.3987 83.3359 39.0003 83.6875L59.0003 95.6875C59.6096 96.0391 60.3674 96.0469 60.9846 95.6953C61.594 95.3516 61.9846 94.7031 62.0003 94V46.75L93.1253 13.6875C93.1487 13.6641 93.1643 13.6484 93.1878 13.625L93.4378 13.375C93.5315 13.2812 93.6174 13.1719 93.6878 13.0625C93.7346 13.0234 93.7737 12.9844 93.8128 12.9375C93.9299 12.6797 93.9924 12.4062 94.0003 12.125C94.0003 12.0859 94.0003 12.0391 94.0003 12C94.0081 11.8984 94.0081 11.7891 94.0003 11.6875V6C94.0003 4.89844 93.1018 4 92.0003 4H8.00026C7.93776 4 7.87526 4 7.81276 4C7.75026 4 7.68776 4 7.62526 4ZM10.0003 8H90.0003V11.25L59.1253 44H40.8753L10.0003 11.25V8ZM42.0003 48H58.0003V90.5L42.0003 80.9375V48Z" fill="#6B7280"/>
</svg>
