<svg width="100" height="100" viewBox="0 0 100 100" fill="none" xmlns="http://www.w3.org/2000/svg">
<path d="M49.8125 7.93752C49.7266 7.95314 49.6406 7.97658 49.5625 8.00002C49.5391 8.00002 49.5234 8.00002 49.5 8.00002C29.8203 8.16408 12.7031 17.9297 4.75 32.125C4.6875 32.2344 4.61719 32.3281 4.5625 32.4375C1.64063 37.7656 0 43.711 0 50C0 63.1563 7.11719 74.8281 18.25 82.5C18.2734 82.5 18.2891 82.5 18.3125 82.5C26.9609 88.4453 38.0312 92 50 92C77.4141 92 100 73.3906 100 50C100 26.7188 77.6172 8.17189 50.375 8.00002C50.1953 7.95314 50 7.9297 49.8125 7.93752ZM47.625 12.0625C47.75 12.0547 47.875 12.0703 48 12.0625V24.0625C41.1953 24.4375 35.0156 26.6797 30.375 30.25C29.1953 31.1563 28.1562 32.1797 27.1875 33.25C25.0078 30.5703 21.5156 28.6875 17.875 27.8125C16.3125 27.4375 14.7031 27.2813 13.125 27.375C21.0391 18.586 33.4141 12.6563 47.625 12.0625ZM52 12.0625C66.3672 12.5703 78.8984 18.5078 86.875 27.375C85.2969 27.2813 83.6875 27.4375 82.125 27.8125C78.4844 28.6875 74.9922 30.5703 72.8125 33.25C71.8438 32.1797 70.8047 31.1563 69.625 30.25C64.9844 26.6797 58.8047 24.4375 52 24.0625V12.0625ZM49.625 28C49.75 28.0156 49.875 28.0156 50 28C56.7656 28 62.875 30.1172 67.1875 33.4375C71.5 36.7578 74 41.1797 74 46C74 50.8203 71.5 55.2422 67.1875 58.5625C66.3047 59.2422 65.3359 59.8672 64.3125 60.4375C64.25 60.4766 64.1875 60.5156 64.125 60.5625C60.1797 62.7188 55.2891 64 50 64C44.7266 64 39.875 62.7031 35.9375 60.5625C35.8594 60.5156 35.7734 60.4766 35.6875 60.4375C34.6641 59.8672 33.6953 59.2422 32.8125 58.5625C28.5 55.2422 26 50.8203 26 46C26 41.1797 28.5 36.7578 32.8125 33.4375C37.0469 30.1797 43.0156 28.0781 49.625 28ZM14.25 31.3125C15.1172 31.336 16.0234 31.4688 16.9375 31.6875C20.2031 32.4766 23.3281 34.6328 24.625 36.625C22.9453 39.4531 22 42.6406 22 46C22 51.6953 24.7578 56.8438 29.125 60.6875C27.0156 61.4766 24.8438 62.7656 22.875 64.5625C19.7812 67.3906 17.1719 71.5235 16.875 76.375C8.875 69.5156 4 60.1797 4 50C4 44.4453 5.4375 39.1563 8.0625 34.375C8.13281 34.2735 8.19531 34.1719 8.25 34.0625C9.11719 32.7188 10.3047 31.9453 11.8125 31.5625C12.5625 31.3672 13.3828 31.2891 14.25 31.3125ZM85.75 31.3125C86.6172 31.2891 87.4375 31.3672 88.1875 31.5625C89.6953 31.9453 90.8828 32.7188 91.75 34.0625C91.7891 34.125 91.8281 34.1875 91.875 34.25C94.5391 39.0625 96 44.3985 96 50C96 60.1797 91.125 69.5156 83.125 76.375C82.8281 71.5235 80.2188 67.3906 77.125 64.5625C75.1562 62.7656 72.9844 61.4766 70.875 60.6875C75.2422 56.8438 78 51.6953 78 46C78 42.6406 77.0547 39.4531 75.375 36.625C76.6719 34.6328 79.7969 32.4766 83.0625 31.6875C83.9766 31.4688 84.8828 31.336 85.75 31.3125ZM32.8125 63.875C33.3516 63.8516 33.6953 63.9375 33.8125 64C33.875 64.0235 33.9375 64.0469 34 64.0625C38.5625 66.5469 44.0781 68 50 68C55.8125 68 61.2344 66.586 65.75 64.1875C65.9062 64.1406 66.0469 64.0781 66.1875 64C66.4141 63.8828 67.6484 63.7422 69.25 64.3125C70.8516 64.8828 72.7812 65.9844 74.4375 67.5C77.6094 70.3985 79.8828 74.5547 78.875 79.5625C71.0078 84.8125 60.9766 88 50 88C39.0234 88 28.9922 84.8125 21.125 79.5625C20.1172 74.5547 22.3906 70.3985 25.5625 67.5C27.2188 65.9844 29.1484 64.8828 30.75 64.3125C31.5547 64.0235 32.2734 63.8985 32.8125 63.875Z" fill="#6B7280"/>
</svg>
