<svg width="100" height="99" viewBox="0 0 100 99" fill="none" xmlns="http://www.w3.org/2000/svg">
<path d="M50.0178 1C47.935 1 45.837 1.74257 44.1983 3.24286C44.1753 3.26559 44.16 3.28075 44.137 3.30348L3.3393 43.8568C0.215148 46.9484 0.245777 52.0024 3.27804 55.253C3.30101 55.2757 3.31633 55.2909 3.3393 55.3136L44.137 95.6851C47.2612 98.7766 52.3686 98.7463 55.6535 95.7458C55.6765 95.723 55.6918 95.7079 55.7148 95.6851L96.5125 55.3136C99.7745 52.0857 99.8205 46.9484 96.6963 43.8568L55.7148 3.30348C54.1527 1.75772 52.1006 1 50.0178 1ZM49.9565 4.87954C51.0592 4.87954 52.1695 5.25083 52.9582 6.03128L93.9397 46.5847C95.5247 48.1531 95.5324 50.7673 93.6947 52.5858L53.0194 92.8967C52.9965 92.9194 52.9812 92.9422 52.9582 92.9573C51.1434 94.5561 48.4557 94.5031 46.8937 92.9573L6.15716 52.6464C6.13419 52.6237 6.11888 52.6086 6.0959 52.5858C5.2919 51.6917 4.92435 50.5779 4.932 49.4943C4.932 49.2215 4.93966 48.9715 4.99326 48.7063C5.14641 47.9182 5.5063 47.1681 6.0959 46.5847L46.8324 6.0919L46.8937 6.03128C47.7896 5.24325 48.8769 4.87954 49.9565 4.87954ZM47.69 28.1568C47.1004 28.1568 46.8937 28.5584 46.8937 28.9448V57.0715C46.8937 57.655 47.2995 57.8596 47.69 57.8596H52.1618C52.7514 57.8596 52.9582 57.458 52.9582 57.0715V28.9448C52.9582 28.3614 52.5523 28.1568 52.1618 28.1568H47.69ZM47.69 64.2245C47.1004 64.2245 46.8937 64.626 46.8937 65.0125V70.2256C46.8937 70.8091 47.2995 71.0137 47.69 71.0137H52.3456C52.9352 71.0137 53.142 70.6121 53.142 70.2256V65.1943C53.142 64.6109 52.7361 64.4063 52.3456 64.4063V64.2245H47.69Z" fill="#6B7280"/>
</svg>
