<svg width="100" height="100" viewBox="0 0 100 100" fill="none" xmlns="http://www.w3.org/2000/svg">
<path d="M14 14C10.692 14 8 16.692 8 20V80C8 83.308 10.692 86 14 86H66.0273C65.0993 84.766 64.3018 83.432 63.6758 82H14C12.896 82 12 81.102 12 80V30H88V54.918C89.41 55.36 90.744 55.9693 92 56.6953V20C92 16.692 89.308 14 86 14H14ZM14 18H86C87.104 18 88 18.898 88 20V26H12V20C12 18.898 12.896 18 14 18ZM16 20C15.4696 20 14.9609 20.2107 14.5858 20.5858C14.2107 20.9609 14 21.4696 14 22C14 22.5304 14.2107 23.0391 14.5858 23.4142C14.9609 23.7893 15.4696 24 16 24C16.5304 24 17.0391 23.7893 17.4142 23.4142C17.7893 23.0391 18 22.5304 18 22C18 21.4696 17.7893 20.9609 17.4142 20.5858C17.0391 20.2107 16.5304 20 16 20ZM22 20C21.4696 20 20.9609 20.2107 20.5858 20.5858C20.2107 20.9609 20 21.4696 20 22C20 22.5304 20.2107 23.0391 20.5858 23.4142C20.9609 23.7893 21.4696 24 22 24C22.5304 24 23.0391 23.7893 23.4142 23.4142C23.7893 23.0391 24 22.5304 24 22C24 21.4696 23.7893 20.9609 23.4142 20.5858C23.0391 20.2107 22.5304 20 22 20ZM28 20C27.4696 20 26.9609 20.2107 26.5858 20.5858C26.2107 20.9609 26 21.4696 26 22C26 22.5304 26.2107 23.0391 26.5858 23.4142C26.9609 23.7893 27.4696 24 28 24C28.5304 24 29.0391 23.7893 29.4142 23.4142C29.7893 23.0391 30 22.5304 30 22C30 21.4696 29.7893 20.9609 29.4142 20.5858C29.0391 20.2107 28.5304 20 28 20ZM82 58C73.1871 58 66 65.1871 66 74C66 79.8742 69.2624 84.9102 74 87.6875V92C74 94.7413 75.8911 97.058 78.4219 97.7617C79.0742 99.0844 80.4248 100 82 100C83.5752 100 84.9258 99.0844 85.5781 97.7617C88.1089 97.058 90 94.7413 90 92V87.6875C94.7376 84.9102 98 79.8742 98 74C98 65.1871 90.8129 58 82 58ZM82 62C88.6511 62 94 67.3489 94 74C94 78.1949 91.8544 81.8573 88.6094 84H82V88H86V92C86 93.1301 85.1301 94 84 94H80C78.8699 94 78 93.1301 78 92V85.3711L76.8594 84.8281C72.8079 82.901 70 78.8 70 74C70 67.3489 75.3489 62 82 62Z" fill="#6B7280"/>
</svg>
