<svg width="100" height="100" viewBox="0 0 100 100" fill="none" xmlns="http://www.w3.org/2000/svg">
<path d="M18 8C12.501 8 8 12.501 8 18V82C8 87.499 12.501 92 18 92H82C87.499 92 92 87.499 92 82V18C92 12.501 87.499 8 82 8H18ZM18 12H82C85.337 12 88 14.663 88 18V82C88 85.337 85.337 88 82 88H18C14.663 88 12 85.337 12 82V18C12 14.663 14.663 12 18 12ZM46.9023 24C46.3583 24 46 24.3434 46 24.8594V31.1406C46 31.6546 46.3563 32 46.9023 32V31.9961H53.0898C53.6338 31.9961 54 31.6527 54 31.1367V24.8594C54 24.3454 53.6338 24 53.0898 24H46.9023ZM46.9492 40C46.3812 40 46 40.3039 46 40.7539V75.2461C46 75.6961 46.3772 75.9961 46.9492 75.9961V76H53.0469C53.6189 76 54 75.6961 54 75.2461V40.7539C54 40.3039 53.6209 40 53.0469 40H46.9492Z" fill="#6B7280"/>
</svg>
