<svg width="100" height="100" viewBox="0 0 100 100" fill="none" xmlns="http://www.w3.org/2000/svg">
<path d="M50 4C24.7188 4 4 22.7188 4 46C4 55.8984 7.8125 64.9688 14.0625 72.125H14C14.7812 73.4375 14.8828 75 14.4375 76.9375C13.9922 78.875 12.9922 81.0547 11.8125 83.0625C10.6328 85.0703 9.3125 86.8828 8.25 88.3125C7.71875 89.0234 7.23438 89.625 6.875 90.125C6.69531 90.375 6.57813 90.6328 6.4375 90.875C6.29688 91.1172 6 91.1016 6 92.1875C6 93.0156 6.32813 94.0312 7.125 94.8125C7.92188 95.5938 9.07031 96 10.375 96C19.5938 96 27.9844 89.1484 34.375 85.375C39.2734 87 44.5 88 50 88C75.2812 88 96 69.2812 96 46C96 22.7188 75.2812 4 50 4ZM50 8C73.3203 8 92 25.0938 92 46C92 66.9062 73.3203 84 50 84C44.5938 84 39.4297 83.0547 34.6875 81.375L33.8125 81.0625L33.0625 81.5625C26.125 85.5312 17.7734 91.9297 10.5 92C10.7734 91.625 11.0391 91.2812 11.4375 90.75C12.5234 89.2891 13.9453 87.2812 15.25 85.0625C16.5547 82.8438 17.7891 80.3828 18.375 77.8125C18.9609 75.2422 18.8906 72.4922 17.4375 70.0625L17.3125 69.875L17.25 69.75C11.4688 63.2188 8 54.9844 8 46C8 25.0938 26.6797 8 50 8ZM32.6875 24C31.9531 24.1328 31.3438 24.6641 31.125 25.375L25.0625 42.875C24.8281 43.2031 24.6953 43.5938 24.6875 44L22.125 51.375C21.7656 52.0781 21.8516 52.9219 22.3438 53.5391C22.8359 54.1562 23.6406 54.4219 24.4062 54.2266C25.1641 54.0312 25.7422 53.4062 25.875 52.625L28.1875 46H37.8125L40.125 52.625C40.2578 53.4062 40.8359 54.0312 41.5938 54.2266C42.3594 54.4219 43.1641 54.1562 43.6562 53.5391C44.1484 52.9219 44.2344 52.0781 43.875 51.375L34.875 25.375C34.5781 24.4453 33.6562 23.8594 32.6875 24ZM33 32.0625L36.4375 42H29.5625L33 32.0625ZM65.8125 37.9375C65.7266 37.9531 65.6406 37.9766 65.5625 38C64.6328 38.2109 63.9766 39.0469 64 40V44H54C53.9375 44 53.875 44 53.8125 44C53.75 44 53.6875 44 53.625 44C52.5234 44.1016 51.7109 45.0859 51.8125 46.1875C51.9141 47.2891 52.8984 48.1016 54 48H71.4375C70.6484 50.6172 68.8359 55.0703 64.8125 59.125C61.4062 55.7656 59.875 52.9375 59.875 52.9375C59.4922 52.2031 58.6953 51.7812 57.875 51.875C57.2031 51.9531 56.6172 52.3594 56.3125 52.9688C56.0078 53.5703 56.0312 54.2891 56.375 54.875C56.375 54.875 58.1016 57.9922 61.75 61.6875C59.4766 63.3906 56.75 64.9688 53.375 66.125C52.5938 66.2578 51.9688 66.8359 51.7734 67.5938C51.5781 68.3594 51.8438 69.1641 52.4609 69.6562C53.0781 70.1484 53.9219 70.2344 54.625 69.875C58.7031 68.4766 61.9922 66.5234 64.6875 64.375C66.9922 66.2969 69.7422 68.1953 73.125 69.8125C74.125 70.2969 75.3281 69.875 75.8125 68.875C76.2969 67.875 75.875 66.6719 74.875 66.1875C72.0312 64.8281 69.6719 63.2734 67.6875 61.6875C72.8203 56.3984 74.8203 50.7109 75.5625 48H78C78.7188 48.0078 79.3906 47.6328 79.7578 47.0078C80.1172 46.3828 80.1172 45.6172 79.7578 44.9922C79.3906 44.3672 78.7188 43.9922 78 44H68V40C68.0234 39.4219 67.7891 38.8672 67.375 38.4766C66.9531 38.0781 66.3828 37.8828 65.8125 37.9375Z" fill="#6B7280"/>
</svg>
