<svg width="100" height="100" viewBox="0 0 100 100" fill="none" xmlns="http://www.w3.org/2000/svg">
<path d="M39.625 26.1877C39.1875 26.2658 38.7969 26.4846 38.5 26.8127L16.6875 48.5627L15.3125 50.0002L16.6875 51.4377L38.5 73.1877C38.9844 73.7814 39.7578 74.0549 40.5078 73.883C41.25 73.7111 41.8359 73.1252 42.0078 72.383C42.1797 71.633 41.9062 70.8596 41.3125 70.3752L22.9375 52.0002H82C82.7188 52.008 83.3906 51.633 83.7578 51.008C84.1172 50.383 84.1172 49.6174 83.7578 48.9924C83.3906 48.3674 82.7188 47.9924 82 48.0002H22.9375L41.3125 29.6252C41.9609 29.0236 42.1328 28.0705 41.7422 27.2814C41.3594 26.4846 40.4922 26.0471 39.625 26.1877Z" fill="#6B7280"/>
</svg>
