<svg width="100" height="100" viewBox="0 0 100 100" fill="none" xmlns="http://www.w3.org/2000/svg">
<path d="M26 12C25.4696 12 24.9609 12.2107 24.5858 12.5858C24.2107 12.9609 24 13.4696 24 14C24 14.5304 24.2107 15.0391 24.5858 15.4142C24.9609 15.7893 25.4696 16 26 16C26.5304 16 27.0391 15.7893 27.4142 15.4142C27.7893 15.0391 28 14.5304 28 14C28 13.4696 27.7893 12.9609 27.4142 12.5858C27.0391 12.2107 26.5304 12 26 12ZM74 12C73.4696 12 72.9609 12.2107 72.5858 12.5858C72.2107 12.9609 72 13.4696 72 14C72 14.5304 72.2107 15.0391 72.5858 15.4142C72.9609 15.7893 73.4696 16 74 16C74.5304 16 75.0391 15.7893 75.4142 15.4142C75.7893 15.0391 76 14.5304 76 14C76 13.4696 75.7893 12.9609 75.4142 12.5858C75.0391 12.2107 74.5304 12 74 12ZM50 14C42.2913 14 36 20.2913 36 28C36 32.6576 38.4862 36.5819 42 39.125V44C42 46.7413 43.8911 49.058 46.4219 49.7617C47.0742 51.0844 48.4248 52 50 52C51.5752 52 52.9258 51.0844 53.5781 49.7617C56.1089 49.058 58 46.7413 58 44V39.125C61.5138 36.5819 64 32.6576 64 28C64 20.2913 57.7087 14 50 14ZM16 16C11.6053 16 8 19.6053 8 24V68C8 69.4614 8.4273 70.8167 9.12109 72H4C3.46958 72.0001 2.96091 72.2108 2.58584 72.5858C2.21078 72.9609 2.00005 73.4696 2 74C2 79.499 6.50097 84 12 84H88C93.499 84 98 79.499 98 74C97.9999 73.4696 97.7892 72.9609 97.4142 72.5858C97.0391 72.2108 96.5304 72.0001 96 72H90.8789C91.5727 70.8167 92 69.4614 92 68V24C92 19.6053 88.3947 16 84 16H80V20H84C86.2333 20 88 21.7667 88 24V68C88 70.2333 86.2333 72 84 72H16C13.7667 72 12 70.2333 12 68V24C12 21.7667 13.7667 20 16 20H20V16H16ZM32 16C31.4696 16 30.9609 16.2107 30.5858 16.5858C30.2107 16.9609 30 17.4696 30 18C30 18.5304 30.2107 19.0391 30.5858 19.4142C30.9609 19.7893 31.4696 20 32 20C32.5304 20 33.0391 19.7893 33.4142 19.4142C33.7893 19.0391 34 18.5304 34 18C34 17.4696 33.7893 16.9609 33.4142 16.5858C33.0391 16.2107 32.5304 16 32 16ZM68 16C67.4696 16 66.9609 16.2107 66.5858 16.5858C66.2107 16.9609 66 17.4696 66 18C66 18.5304 66.2107 19.0391 66.5858 19.4142C66.9609 19.7893 67.4696 20 68 20C68.5304 20 69.0391 19.7893 69.4142 19.4142C69.7893 19.0391 70 18.5304 70 18C70 17.4696 69.7893 16.9609 69.4142 16.5858C69.0391 16.2107 68.5304 16 68 16ZM50 18C55.5473 18 60 22.4527 60 28C60 31.2907 58.4159 34.179 55.9766 36H50V40H54V44C54 45.1301 53.1301 46 52 46H48C46.8699 46 46 45.1301 46 44V37.2305L45.0039 36.6523C42.0145 34.9207 40 31.7145 40 28C40 22.4527 44.4527 18 50 18ZM22 26C21.4696 26 20.9609 26.2107 20.5858 26.5858C20.2107 26.9609 20 27.4696 20 28C20 28.5304 20.2107 29.0391 20.5858 29.4142C20.9609 29.7893 21.4696 30 22 30C22.5304 30 23.0391 29.7893 23.4142 29.4142C23.7893 29.0391 24 28.5304 24 28C24 27.4696 23.7893 26.9609 23.4142 26.5858C23.0391 26.2107 22.5304 26 22 26ZM30 26C29.4696 26 28.9609 26.2107 28.5858 26.5858C28.2107 26.9609 28 27.4696 28 28C28 28.5304 28.2107 29.0391 28.5858 29.4142C28.9609 29.7893 29.4696 30 30 30C30.5304 30 31.0391 29.7893 31.4142 29.4142C31.7893 29.0391 32 28.5304 32 28C32 27.4696 31.7893 26.9609 31.4142 26.5858C31.0391 26.2107 30.5304 26 30 26ZM70 26C69.4696 26 68.9609 26.2107 68.5858 26.5858C68.2107 26.9609 68 27.4696 68 28C68 28.5304 68.2107 29.0391 68.5858 29.4142C68.9609 29.7893 69.4696 30 70 30C70.5304 30 71.0391 29.7893 71.4142 29.4142C71.7893 29.0391 72 28.5304 72 28C72 27.4696 71.7893 26.9609 71.4142 26.5858C71.0391 26.2107 70.5304 26 70 26ZM78 26C77.4696 26 76.9609 26.2107 76.5858 26.5858C76.2107 26.9609 76 27.4696 76 28C76 28.5304 76.2107 29.0391 76.5858 29.4142C76.9609 29.7893 77.4696 30 78 30C78.5304 30 79.0391 29.7893 79.4142 29.4142C79.7893 29.0391 80 28.5304 80 28C80 27.4696 79.7893 26.9609 79.4142 26.5858C79.0391 26.2107 78.5304 26 78 26ZM32 36C31.4696 36 30.9609 36.2107 30.5858 36.5858C30.2107 36.9609 30 37.4696 30 38C30 38.5304 30.2107 39.0391 30.5858 39.4142C30.9609 39.7893 31.4696 40 32 40C32.5304 40 33.0391 39.7893 33.4142 39.4142C33.7893 39.0391 34 38.5304 34 38C34 37.4696 33.7893 36.9609 33.4142 36.5858C33.0391 36.2107 32.5304 36 32 36ZM68 36C67.4696 36 66.9609 36.2107 66.5858 36.5858C66.2107 36.9609 66 37.4696 66 38C66 38.5304 66.2107 39.0391 66.5858 39.4142C66.9609 39.7893 67.4696 40 68 40C68.5304 40 69.0391 39.7893 69.4142 39.4142C69.7893 39.0391 70 38.5304 70 38C70 37.4696 69.7893 36.9609 69.4142 36.5858C69.0391 36.2107 68.5304 36 68 36ZM26 40C25.4696 40 24.9609 40.2107 24.5858 40.5858C24.2107 40.9609 24 41.4696 24 42C24 42.5304 24.2107 43.0391 24.5858 43.4142C24.9609 43.7893 25.4696 44 26 44C26.5304 44 27.0391 43.7893 27.4142 43.4142C27.7893 43.0391 28 42.5304 28 42C28 41.4696 27.7893 40.9609 27.4142 40.5858C27.0391 40.2107 26.5304 40 26 40ZM74 40C73.4696 40 72.9609 40.2107 72.5858 40.5858C72.2107 40.9609 72 41.4696 72 42C72 42.5304 72.2107 43.0391 72.5858 43.4142C72.9609 43.7893 73.4696 44 74 44C74.5304 44 75.0391 43.7893 75.4142 43.4142C75.7893 43.0391 76 42.5304 76 42C76 41.4696 75.7893 40.9609 75.4142 40.5858C75.0391 40.2107 74.5304 40 74 40ZM6.82422 76H16H84H93.1758C92.3016 78.2249 90.5517 80 88 80H12C9.4483 80 7.69839 78.2249 6.82422 76Z" fill="#6B7280"/>
</svg>
