<svg width="100" height="100" viewBox="0 0 100 100" fill="none" xmlns="http://www.w3.org/2000/svg">
<path d="M31.8125 11.9373C31.7266 11.9529 31.6407 11.9763 31.5625 11.9998C30.6328 12.2107 29.9766 13.0466 30 13.9998V15.9998H28C27.9375 15.9998 27.875 15.9998 27.8125 15.9998C26.711 16.0544 25.8516 16.9919 25.9063 18.0935C25.961 19.1951 26.8985 20.0544 28 19.9998H30V21.9998C29.9922 22.7185 30.3672 23.3904 30.9922 23.7576C31.6172 24.1169 32.3828 24.1169 33.0078 23.7576C33.6328 23.3904 34.0078 22.7185 34 21.9998V19.9998H36C36.7188 20.0076 37.3907 19.6326 37.7578 19.0076C38.1172 18.3826 38.1172 17.6169 37.7578 16.9919C37.3907 16.3669 36.7188 15.9919 36 15.9998H34V13.9998C34.0235 13.4216 33.7891 12.8669 33.375 12.4763C32.9532 12.0779 32.3828 11.8826 31.8125 11.9373ZM56.625 25.9373L54 26.3123C40.4375 28.2498 30 39.9138 30 53.9998C30 69.4373 42.5625 81.9998 58 81.9998C72.086 81.9998 83.7422 71.5623 85.6875 57.9998L86.0625 55.3748L83.4375 55.7498C82.2735 55.9138 81.1328 55.9998 80 55.9998C66.7188 55.9998 56 45.281 56 31.9998C56 30.8669 56.086 29.7263 56.25 28.5623L56.625 25.9373ZM52.0625 31.0623C52.0469 31.3826 52 31.6716 52 31.9998C52 47.4373 64.5625 59.9998 80 59.9998C80.3282 59.9998 80.6172 59.9529 80.9375 59.9373C78.2578 70.2654 69.1797 77.9998 58 77.9998C44.7188 77.9998 34 67.281 34 53.9998C34 42.8201 41.7344 33.7341 52.0625 31.0623ZM15.8125 35.9373C15.7266 35.9529 15.6407 35.9763 15.5625 35.9998C14.6328 36.2107 13.9766 37.0466 14 37.9998C13.9375 37.9998 13.875 37.9998 13.8125 37.9998C12.711 38.0544 11.8516 38.9919 11.9063 40.0935C11.961 41.1951 12.8985 42.0544 14 41.9998C13.9922 42.7185 14.3672 43.3904 14.9922 43.7576C15.6172 44.1169 16.3828 44.1169 17.0078 43.7576C17.6328 43.3904 18.0078 42.7185 18 41.9998C18.7188 42.0076 19.3907 41.6326 19.7578 41.0076C20.1172 40.3826 20.1172 39.6169 19.7578 38.9919C19.3907 38.3669 18.7188 37.9919 18 37.9998C18.0235 37.4216 17.7891 36.8669 17.375 36.4763C16.9532 36.0779 16.3828 35.8826 15.8125 35.9373Z" fill="#6B7280"/>
</svg>
