<svg width="100" height="100" viewBox="0 0 100 100" fill="none" xmlns="http://www.w3.org/2000/svg">
<path d="M18 38C11.3984 38 6 43.3984 6 50C6 56.6016 11.3984 62 18 62C24.6016 62 30 56.6016 30 50C30 43.3984 24.6016 38 18 38ZM50 38C43.3984 38 38 43.3984 38 50C38 56.6016 43.3984 62 50 62C56.6016 62 62 56.6016 62 50C62 43.3984 56.6016 38 50 38ZM82 38C75.3984 38 70 43.3984 70 50C70 56.6016 75.3984 62 82 62C88.6016 62 94 56.6016 94 50C94 43.3984 88.6016 38 82 38ZM18 42C22.4453 42 26 45.5547 26 50C26 54.4453 22.4453 58 18 58C13.5547 58 10 54.4453 10 50C10 45.5547 13.5547 42 18 42ZM50 42C54.4453 42 58 45.5547 58 50C58 54.4453 54.4453 58 50 58C45.5547 58 42 54.4453 42 50C42 45.5547 45.5547 42 50 42ZM82 42C86.4453 42 90 45.5547 90 50C90 54.4453 86.4453 58 82 58C77.5547 58 74 54.4453 74 50C74 45.5547 77.5547 42 82 42Z" fill="#6B7280"/>
</svg>
