<svg width="100" height="100" viewBox="0 0 100 100" fill="none" xmlns="http://www.w3.org/2000/svg">
<path d="M49.9688 4L37.25 16.6562C36.4531 17.4453 36.4531 18.7344 37.25 19.5312C38.0469 20.3281 39.3281 20.3281 40.125 19.5312L48 11.6875V30H6V34H94V30H52V11.6875L59.875 19.5312C60.6719 20.3281 61.9609 20.3281 62.75 19.5312C63.5469 18.7344 63.5469 17.4453 62.75 16.6562L50.0312 4L50 4.03125L49.9688 4ZM6 48V52H94V48H6ZM6 66.0312V70.0312H48V88.3438L40.125 80.5C39.3281 79.7031 38.0469 79.7031 37.25 80.5C36.4531 81.2891 36.4531 82.5781 37.25 83.375L49.9688 96.0312L50 96L50.0312 96.0312L62.75 83.375C63.5469 82.5781 63.5469 81.2969 62.75 80.5C61.9609 79.7031 60.6719 79.7031 59.875 80.5L52 88.3438V70.0312H94V66.0312H6Z" fill="#6B7280"/>
</svg>
