<svg width="100" height="100" viewBox="0 0 100 100" fill="none" xmlns="http://www.w3.org/2000/svg">
<path d="M50 0C45.6016 0 42 3.60156 42 8C42 9.03125 42.2031 10.0312 42.5625 10.9375C31.3125 13.8594 24 23.6328 24 36C24 51.6641 20.1562 58.7969 16.5 62.8125C14.6719 64.8203 12.8672 66.0391 11.3125 67.1875C10.5312 67.7578 9.82031 68.3281 9.1875 69.0625C8.55469 69.7969 8 70.8438 8 72C8 74.75 9.6875 77.0859 12.0625 78.625C14.4375 80.1641 17.5547 81.1562 21.3125 81.9375C26.1875 82.9453 32.2031 83.4766 38.8125 83.75C38.3125 85.0781 38 86.5078 38 88C38 94.6016 43.3984 100 50 100C56.6016 100 62 94.6016 62 88C62 86.5 61.6953 85.0703 61.1875 83.75C67.7969 83.4766 73.8125 82.9453 78.6875 81.9375C82.4453 81.1562 85.5625 80.1641 87.9375 78.625C90.3125 77.0859 92 74.75 92 72C92 70.8438 91.4453 69.7969 90.8125 69.0625C90.1797 68.3281 89.4688 67.7578 88.6875 67.1875C87.1328 66.0391 85.3281 64.8203 83.5 62.8125C79.8438 58.7969 76 51.6641 76 36C76 23.6406 68.6719 13.875 57.4375 10.9375C57.7969 10.0312 58 9.03125 58 8C58 3.60156 54.3984 0 50 0ZM50 4C52.2344 4 54 5.76563 54 8C54 10.2344 52.2344 12 50 12C47.7656 12 46 10.2344 46 8C46 5.76563 47.7656 4 50 4ZM54.6875 14.375C65.3516 16.2734 72 24.5156 72 36C72 52.3359 76.1562 60.7266 80.5 65.5C82.6719 67.8828 84.8672 69.375 86.3125 70.4375C87.0312 70.9688 87.5703 71.4141 87.8125 71.6875C88.0547 71.9609 88 71.9375 88 72C88 73.25 87.4219 74.1641 85.75 75.25C84.0781 76.3359 81.3594 77.3438 77.875 78.0625C70.9062 79.5078 60.9844 80 50 80C39.0156 80 29.0938 79.5078 22.125 78.0625C18.6406 77.3438 15.9219 76.3359 14.25 75.25C12.5781 74.1641 12 73.25 12 72C12 71.9375 11.9453 71.9609 12.1875 71.6875C12.4297 71.4141 12.9688 70.9688 13.6875 70.4375C15.1328 69.375 17.3281 67.8828 19.5 65.5C23.8438 60.7266 28 52.3359 28 36C28 24.5234 34.6562 16.3438 45.3125 14.4375C46.6406 15.4141 48.2422 16 50 16C51.7734 16 53.3594 15.3672 54.6875 14.375ZM43.125 83.875C45.3672 83.9219 47.6484 84 50 84C52.3516 84 54.6328 83.9219 56.875 83.875C57.5859 85.0781 58 86.5 58 88C58 92.4453 54.4453 96 50 96C45.5547 96 42 92.4453 42 88C42 86.4844 42.3984 85.0781 43.125 83.875Z" fill="#6B7280"/>
</svg>
