<svg width="100" height="100" viewBox="0 0 100 100" fill="none" xmlns="http://www.w3.org/2000/svg">
<path d="M96.8454 1.01118C96.585 1.0418 96.34 1.126 96.1103 1.25614L2.02452 52.2075C1.34307 52.5749 0.944925 53.3098 1.00618 54.0829C1.07509 54.8561 1.59575 55.5144 2.33079 55.7593L29.0374 64.5166L26.4648 90.9721C26.3576 91.8294 26.8323 92.6562 27.6286 93.0007C28.4249 93.3451 29.3514 93.1155 29.895 92.4418L46.7398 73.3963L72.1601 98.4433C72.6578 98.9332 73.3775 99.117 74.0513 98.9256C74.7251 98.7342 75.2381 98.206 75.4065 97.5247L98.928 3.46076C99.1041 2.84071 98.951 2.17473 98.5375 1.68481C98.1164 1.1949 97.4885 0.942284 96.8454 1.01118ZM94.0277 6.7677L72.4051 93.238L49.1899 70.3344L82.9408 23.7311C83.6834 22.9503 83.6605 21.7178 82.8795 20.9753C82.0985 20.2327 80.8658 20.2557 80.1231 21.0365L30.8138 60.9647L7.84363 53.4935L94.0277 6.7677ZM71.1188 33.3457L45.3922 69.0483C45.3233 69.1249 45.262 69.2091 45.2084 69.2933L45.0859 69.4158C45.04 69.477 45.0017 69.5382 44.9634 69.5995L30.9363 85.3381L33.0189 64.1492L71.1188 33.3457Z" fill="#6B7280"/>
</svg>
