<svg width="100" height="100" viewBox="0 0 100 100" fill="none" xmlns="http://www.w3.org/2000/svg">
<path d="M16.6667 12.5C14.3667 12.5 12.5 14.3667 12.5 16.6667V25C12.5 27.3 14.3667 29.1667 16.6667 29.1667H25C27.3 29.1667 29.1667 27.3 29.1667 25V16.6667C29.1667 14.3667 27.3 12.5 25 12.5H16.6667ZM45.8333 12.5C43.5333 12.5 41.6667 14.3667 41.6667 16.6667V25C41.6667 27.3 43.5333 29.1667 45.8333 29.1667H54.1667C56.4667 29.1667 58.3333 27.3 58.3333 25V16.6667C58.3333 14.3667 56.4667 12.5 54.1667 12.5H45.8333ZM75 12.5C72.7 12.5 70.8333 14.3667 70.8333 16.6667V25C70.8333 27.3 72.7 29.1667 75 29.1667H83.3333C85.6333 29.1667 87.5 27.3 87.5 25V16.6667C87.5 14.3667 85.6333 12.5 83.3333 12.5H75ZM16.6667 41.6667C14.3667 41.6667 12.5 43.5333 12.5 45.8333V54.1667C12.5 56.4667 14.3667 58.3333 16.6667 58.3333H25C27.3 58.3333 29.1667 56.4667 29.1667 54.1667V45.8333C29.1667 43.5333 27.3 41.6667 25 41.6667H16.6667ZM45.8333 41.6667C43.5333 41.6667 41.6667 43.5333 41.6667 45.8333V54.1667C41.6667 56.4667 43.5333 58.3333 45.8333 58.3333H54.1667C56.4667 58.3333 58.3333 56.4667 58.3333 54.1667V45.8333C58.3333 43.5333 56.4667 41.6667 54.1667 41.6667H45.8333ZM75 41.6667C72.7 41.6667 70.8333 43.5333 70.8333 45.8333V54.1667C70.8333 56.4667 72.7 58.3333 75 58.3333H83.3333C85.6333 58.3333 87.5 56.4667 87.5 54.1667V45.8333C87.5 43.5333 85.6333 41.6667 83.3333 41.6667H75ZM16.6667 70.8333C14.3667 70.8333 12.5 72.7 12.5 75V83.3333C12.5 85.6333 14.3667 87.5 16.6667 87.5H25C27.3 87.5 29.1667 85.6333 29.1667 83.3333V75C29.1667 72.7 27.3 70.8333 25 70.8333H16.6667ZM45.8333 70.8333C43.5333 70.8333 41.6667 72.7 41.6667 75V83.3333C41.6667 85.6333 43.5333 87.5 45.8333 87.5H54.1667C56.4667 87.5 58.3333 85.6333 58.3333 83.3333V75C58.3333 72.7 56.4667 70.8333 54.1667 70.8333H45.8333ZM75 70.8333C72.7 70.8333 70.8333 72.7 70.8333 75V83.3333C70.8333 85.6333 72.7 87.5 75 87.5H83.3333C85.6333 87.5 87.5 85.6333 87.5 83.3333V75C87.5 72.7 85.6333 70.8333 83.3333 70.8333H75Z" fill="#6B7280"/>
</svg>
