<svg width="100" height="100" viewBox="0 0 100 100" fill="none" xmlns="http://www.w3.org/2000/svg">
<path d="M50.0001 10C27.9298 10 10.0001 27.9297 10.0001 50C9.99231 50.7188 10.3673 51.3906 10.9923 51.7578C11.6173 52.1172 12.3829 52.1172 13.0079 51.7578C13.6329 51.3906 14.0079 50.7188 14.0001 50C14.0001 30.0938 30.0939 14 50.0001 14C62.4923 14 73.4532 20.3594 79.9142 30H66.0001C65.2814 29.9922 64.6095 30.3672 64.2423 30.9922C63.8829 31.6172 63.8829 32.3828 64.2423 33.0078C64.6095 33.6328 65.2814 34.0078 66.0001 34H86.0001V14C86.0079 13.4609 85.797 12.9375 85.4142 12.5547C85.0314 12.1719 84.5079 11.9609 83.9689 11.9688C82.8673 11.9922 81.9845 12.8984 82.0001 14V26.0234C74.6954 16.2969 63.0782 10 50.0001 10ZM87.9689 47.9688C86.8673 47.9922 85.9845 48.8984 86.0001 50C86.0001 69.9062 69.9064 86 50.0001 86C37.5079 86 26.5392 79.6406 20.0861 70H34.0001C34.7189 70.0156 35.3907 69.6328 35.7579 69.0156C36.1173 68.3906 36.1173 67.6172 35.7579 66.9922C35.3907 66.375 34.7189 65.9922 34.0001 66H16.8907C16.6329 65.9531 16.3751 65.9531 16.1173 66H14.0001V86C13.9923 86.7188 14.3673 87.3906 14.9923 87.7578C15.6173 88.1172 16.3829 88.1172 17.0079 87.7578C17.6329 87.3906 18.0079 86.7188 18.0001 86V73.9688C25.297 83.6953 36.922 90 50.0001 90C72.0704 90 90.0001 72.0703 90.0001 50C90.0079 49.4609 89.797 48.9375 89.4142 48.5547C89.0314 48.1719 88.5079 47.9609 87.9689 47.9688Z" fill="#6B7280"/>
</svg>
