<svg width="100" height="100" viewBox="0 0 100 100" fill="none" xmlns="http://www.w3.org/2000/svg">
<path d="M82.0267 7L65.0533 26.5514H69.3357H75.1931V44.1407H88.8602V26.5514H99L82.0267 7ZM82.0267 12.9547L90.4352 22.6426H84.9553V40.232H79.098V22.6426H73.6182L82.0267 12.9547ZM1 22.6426V93H98.6225V30.4601H94.7176V79.2507L69.0535 58.9397C73.504 55.0222 76.1531 52.6847 81.4432 48.0494H75.6888C66.7134 55.8806 57.7263 63.7206 56.3245 64.9441C53.5754 67.3401 50.8538 67.597 49.8112 67.597C48.7706 67.597 46.049 67.3383 43.298 64.9403C40.5646 62.5559 9.04995 35.0663 4.9049 31.4487V26.5514H59.8786L63.2725 22.6426H1ZM4.9049 36.6209C11.1203 42.0433 21.9303 51.471 30.5232 58.9664L4.9049 79.2507V36.6209ZM66.0715 61.5621L94.7176 84.232V89.0913H4.9049V84.232L33.5205 61.5812C35.5043 63.3115 40.2538 67.4566 40.7392 67.8794C44.484 71.1432 48.3332 71.4981 49.8112 71.4981C51.2931 71.4981 55.1404 71.1471 58.8833 67.8833C59.3045 67.5164 63.9581 63.4226 66.0715 61.5621Z" fill="#6B7280"/>
</svg>
