<svg width="100" height="100" viewBox="0 0 100 100" fill="none" xmlns="http://www.w3.org/2000/svg">
<path d="M42 0C38.7109 0 36 2.71094 36 6V8H19.375C16.9297 8 15.2891 9.78906 14.4375 12H14.1875C9.6875 12 6 15.7344 6 20.375V22C6 23.1016 6.89844 24 8 24H10.25L20.4375 93.5C20.9766 97.2734 24.25 100 28 100H72C75.75 100 78.7969 97.2109 79.5625 93.625C79.5625 93.5859 79.5625 93.5391 79.5625 93.5L89.75 24H92C93.1016 24 94 23.1016 94 22V20.375C94 15.7344 90.3125 12 85.8125 12H85.5625C84.7109 9.78906 83.0703 8 80.625 8H64V6C64 2.71094 61.2891 0 58 0H42ZM42 4H58C59.1094 4 60 4.89063 60 6V8H40V6C40 4.89063 40.8906 4 42 4ZM19.375 12H80.625C81.4219 12 82.375 12.8906 82.375 14C82.375 15.1016 83.2734 16 84.375 16H85.8125C87.9766 16 89.6719 17.6719 89.875 20H10.125C10.3281 17.6719 12.0234 16 14.1875 16H15.625C16.7266 16 17.625 15.1016 17.625 14C17.625 12.8906 18.5781 12 19.375 12ZM14.3125 24H85.6875L75.625 92.75C75.1953 94.7578 73.8438 96 72 96H28C26.1562 96 24.6328 94.7578 24.375 92.9375L14.3125 24ZM24.5 32.5625C23.9688 32.6406 23.4844 32.9297 23.1719 33.3594C22.8516 33.7969 22.7266 34.3438 22.8125 34.875L29.4375 84.6875C29.4609 85.4531 29.9219 86.1328 30.625 86.4453C31.3281 86.7578 32.1406 86.6406 32.7266 86.1484C33.3125 85.6484 33.5625 84.8672 33.375 84.125L26.8125 34.3125C26.75 33.7656 26.4688 33.2734 26.0312 32.9375C25.5938 32.6094 25.0391 32.4766 24.5 32.5625ZM41.3125 32.5625C40.2812 32.7188 39.5469 33.6484 39.625 34.6875L41.8125 84.5C41.8672 85.6016 42.8047 86.4609 43.9062 86.4062C45.0078 86.3516 45.8672 85.4141 45.8125 84.3125L43.625 34.5C43.6094 33.9609 43.375 33.4453 42.9766 33.0781C42.5703 32.7188 42.0391 32.5312 41.5 32.5625C41.4375 32.5625 41.375 32.5625 41.3125 32.5625ZM58.0625 32.5625C57.1016 32.7109 56.3906 33.5312 56.375 34.5L54.1875 84.3125C54.1328 85.4141 54.9922 86.3516 56.0938 86.4062C57.1953 86.4609 58.1328 85.6016 58.1875 84.5L60.375 34.6875C60.4141 34.1172 60.2031 33.5547 59.7969 33.1406C59.3828 32.7344 58.8203 32.5234 58.25 32.5625C58.1875 32.5625 58.125 32.5625 58.0625 32.5625ZM74.875 32.5625C73.9844 32.6953 73.2891 33.4141 73.1875 34.3125L66.625 84.125C66.4375 84.8672 66.6875 85.6484 67.2734 86.1484C67.8594 86.6406 68.6719 86.7578 69.375 86.4453C70.0781 86.1328 70.5391 85.4531 70.5625 84.6875L77.1875 34.875C77.2812 34.2734 77.1016 33.6562 76.6875 33.2031C76.2734 32.75 75.6719 32.5156 75.0625 32.5625C75 32.5625 74.9375 32.5625 74.875 32.5625Z" fill="#6B7280"/>
</svg>
