<svg width="100" height="100" viewBox="0 0 100 100" fill="none" xmlns="http://www.w3.org/2000/svg">
<path d="M45.9023 3C38.5423 3.14 33.1428 5.37969 29.8828 9.67969C26.0228 14.7797 25.3022 22.5002 27.7422 32.6602C26.8422 33.7602 26.1814 35.4597 26.4414 37.6797C26.9814 42.0997 28.6806 43.8972 30.1406 44.6172C30.8206 48.0772 32.703 51.9769 34.543 53.7969L34.5625 54.7383C34.5625 56.7783 34.5823 58.5369 34.4023 60.7969C33.1623 63.6169 29.1023 65.2186 24.4023 67.0586C16.5823 70.1386 6.86109 73.9577 6.12109 86.0977L6 88.2188H53.3203C52.5803 86.9587 51.98 85.6188 51.5 84.2188H10.3828C11.8828 76.2787 18.9794 73.4969 25.8594 70.7969C31.3394 68.6369 36.5222 66.6005 38.2422 61.9805L38.3594 61.457C38.5794 58.837 38.5625 56.8392 38.5625 54.6992L38.543 52.8594L38.582 51.6602L37.5 51.0977C36.62 50.5177 34.2823 46.4794 33.9023 42.8594L33.7227 41.2188L32.082 41.0781C31.822 41.0581 30.8019 40.3392 30.4219 37.1992C30.2219 35.5992 31 35.0195 31 35.0195L32.2812 34.2383L31.9023 32.8203C29.4823 23.4603 29.8825 16.2977 33.0625 12.0977C35.5625 8.83766 39.9014 7.12 45.9414 7C49.6814 7 52.4594 7.94 53.3594 9.5L53.8398 10.3594L54.8203 10.5C57.5003 10.88 59.3811 12.0205 60.6211 13.9805C63.6811 18.9205 61.9028 28.0597 60.3828 32.6797L59.9609 34.1797L61.2227 35.0195C61.2427 35.0195 62.0203 35.5992 61.8203 37.1992C61.4603 40.3392 60.4202 41.0581 60.1602 41.0781L58.5195 41.2188L58.3398 42.8594C57.9398 46.4994 55.6828 50.5181 54.8828 51.0781L53.8008 51.6406V54.7188C53.7808 56.8387 53.76 58.837 54 61.457L54.1211 61.9805C54.2011 62.1805 54.2828 62.3781 54.3828 62.5781C55.3828 61.1381 56.5203 59.7977 57.8203 58.5977V58.5781C57.7803 57.2781 57.7808 56.0778 57.8008 54.7578V53.7969C59.6008 51.9569 61.4411 48.0581 62.1211 44.5781C63.5211 43.8581 65.2808 42.0597 65.8008 37.6797C66.0608 35.4997 65.423 33.8188 64.543 32.7188C65.723 28.7588 68.0995 18.4789 64.0195 11.8789C62.2995 9.09891 59.6817 7.35969 56.2617 6.67969C54.3817 4.29969 50.7623 3 45.9023 3ZM74.1211 56.2188C63.1211 56.2188 54.1211 65.2188 54.1211 76.2188C54.1211 87.2188 63.1211 96.2188 74.1211 96.2188C85.1211 96.2188 94.1211 87.2188 94.1211 76.2188C94.1211 65.2188 85.1211 56.2188 74.1211 56.2188ZM74.1211 60.2188C82.9211 60.2188 90.1211 67.4187 90.1211 76.2188C90.1211 85.0188 82.9211 92.2188 74.1211 92.2188C65.3211 92.2188 58.1211 85.0188 58.1211 76.2188C58.1211 67.4187 65.3211 60.2188 74.1211 60.2188ZM84.3008 70.2266C83.7913 70.1801 83.2638 70.3296 82.8398 70.6836L72.2422 79.5117L67.5352 74.8047C66.7532 74.0227 65.489 74.0227 64.707 74.8047C63.925 75.5867 63.925 76.8508 64.707 77.6328L70.707 83.6328C71.095 84.0208 71.6071 84.2188 72.1211 84.2188C72.5751 84.2188 73.0284 84.0639 73.3984 83.7539L85.3984 73.7539C86.2464 73.0479 86.3643 71.7855 85.6562 70.9375C85.3023 70.5135 84.8103 70.2731 84.3008 70.2266Z" fill="#6B7280"/>
</svg>
