<svg width="100" height="100" viewBox="0 0 100 100" fill="none" xmlns="http://www.w3.org/2000/svg">
<path d="M50 4C24.6172 4 4 24.6172 4 50C4 75.3828 24.6172 96 50 96C75.3828 96 96 75.3828 96 50C96 24.6172 75.3828 4 50 4ZM50 8C73.2188 8 92 26.7812 92 50C92 73.2188 73.2188 92 50 92C26.7812 92 8 73.2188 8 50C8 26.7812 26.7812 8 50 8ZM55.75 28C55.3047 28.0469 54.8828 28.25 54.5625 28.5625L34.5625 48.5625C34.1719 48.9375 33.9531 49.4609 33.9531 50C33.9531 50.5391 34.1719 51.0625 34.5625 51.4375L54.5625 71.4375C55.3594 72.2344 56.6406 72.2344 57.4375 71.4375C58.2344 70.6406 58.2344 69.3594 57.4375 68.5625L38.875 50L57.4375 31.4375C58.0859 30.8359 58.2578 29.8828 57.8672 29.0938C57.4844 28.2969 56.6172 27.8594 55.75 28Z" fill="#6B7280"/>
</svg>
