<svg width="100" height="100" viewBox="0 0 100 100" fill="none" xmlns="http://www.w3.org/2000/svg">
<path d="M7.87934 0.00605431C7.79354 0.0216619 7.70774 0.0450703 7.62974 0.0684807C6.88093 0.201136 6.28032 0.747369 6.06971 1.47308C5.85911 2.20659 6.07751 2.98692 6.63132 3.50193L90.4982 87.403C91.2938 88.199 92.5731 88.199 93.3687 87.403C94.1643 86.6071 94.1643 85.3274 93.3687 84.5314L78.1428 69.2994C89.4686 62.4949 97.0035 53.9191 97.5495 53.1934C98.1502 52.5925 98.1502 51.4298 97.5495 50.6339C96.5511 49.6351 75.9588 26.0379 50 26.0379C45.4603 26.0379 41.0611 26.7714 36.8334 27.9731L9.50177 0.630319C9.08836 0.185531 8.48775 -0.0407645 7.87934 0.00605431ZM50 30.0332C55.1949 30.0332 60.382 31.0476 64.9762 32.8424C68.1743 36.4397 69.9683 41.2231 69.9683 46.0143C69.9683 50.2437 68.5721 54.2468 66.3491 57.5008L59.0481 50.1969C59.6488 48.925 59.9842 47.4813 59.9842 46.0143C59.9842 40.4194 55.5927 36.0261 50 36.0261C48.5336 36.0261 47.0906 36.3616 45.8191 36.9625L40.1406 31.2817C43.2763 30.5248 46.5523 30.0332 50 30.0332ZM29.0333 31.032C13.6592 38.0237 3.05107 50.033 2.45046 50.6339C1.84985 51.4298 1.84985 52.3974 2.45046 53.1934C3.44887 54.3951 24.0412 77.9767 50 77.9767C57.5895 77.9767 64.7734 75.9634 70.9667 73.1698L67.9715 69.9861C62.3788 72.3817 56.3883 73.9814 50 73.9814C29.2361 73.9814 11.4752 57.0014 6.88093 52.0073C9.87617 49.0108 17.8245 41.2309 28.4093 35.8388C26.8102 38.8353 26.038 42.417 26.038 46.0143C26.038 59.2019 36.8178 69.9861 50 69.9861C54.9921 69.9861 59.8126 68.402 63.6034 65.8035L60.7954 62.9943C57.5973 64.7891 53.9937 65.9908 50 65.9908C39.0174 65.9908 30.0317 57.0014 30.0317 46.0143C30.0317 42.2219 31.2173 38.4139 33.2141 35.2146L29.0333 31.032ZM71.5907 35.8388C82.1755 41.2309 90.1238 49.0108 93.1191 52.0073C90.4514 54.676 83.9929 61.1137 75.1476 66.3029L69.2195 60.3724C72.1835 56.3693 73.962 51.4454 73.962 46.0143C73.962 42.417 73.1898 38.8353 71.5907 35.8388ZM40.6399 42.6433C40.242 43.845 40.0158 44.8126 40.0158 46.0143C40.0158 51.6093 44.4073 56.0026 50 56.0026C51.2012 56.0026 52.1684 55.7763 53.3697 55.3783L40.6399 42.6433Z" fill="#6B7280"/>
</svg>
