<svg width="100" height="100" viewBox="0 0 100 100" fill="none" xmlns="http://www.w3.org/2000/svg">
<path d="M24 0C21.8125 0 20 1.8125 20 4V8H8C6.95313 8 5.89063 8.38281 5.14063 9.14063C4.38281 9.89063 4 10.9531 4 12V92C4 93.0469 4.38281 94.1094 5.14063 94.8672C5.89063 95.6172 6.95313 96 8 96H92C93.0469 96 94.1094 95.6172 94.8672 94.8672C95.6172 94.1094 96 93.0469 96 92V12C96 10.9531 95.6172 9.89063 94.8672 9.14063C94.1094 8.38281 93.0469 8 92 8H80V4C80 1.8125 78.1875 0 76 0H72C69.8125 0 68 1.8125 68 4V8H32V4C32 1.8125 30.1875 0 28 0H24ZM24 4H28V16H24V4ZM72 4H76V16H72V4ZM8 12H20V16C20 18.1875 21.8125 20 24 20H28C30.1875 20 32 18.1875 32 16V12H68V16C68 18.1875 69.8125 20 72 20H76C78.1875 20 80 18.1875 80 16V12H92V26H8V12ZM8 30H92V92H8V30ZM20 38V84H80V38H20ZM24 42H34V52H24V42ZM38 42H48V52H38V42ZM52 42H62V52H52V42ZM66 42H76V52H66V42ZM24 56H34V66H24V56ZM38 56H48V66H38V56ZM52 56H62V66H52V56ZM66 56H76V66H66V56ZM24 70H34V80H24V70ZM38 70H48V80H38V70ZM52 70H62V80H52V70ZM66 70H76V80H66V70Z" fill="#6B7280"/>
</svg>
