<svg width="100" height="100" viewBox="0 0 100 100" fill="none" xmlns="http://www.w3.org/2000/svg">
<path d="M22 8C14.2891 8 8 14.2891 8 22V78C8 85.7109 14.2891 92 22 92H78C85.7109 92 92 85.7109 92 78V22C92 14.2891 85.7109 8 78 8H22ZM22 12H78C83.5469 12 88 16.4531 88 22V78C88 83.5469 83.5469 88 78 88H22C16.4531 88 12 83.5469 12 78V22C12 16.4531 16.4531 12 22 12ZM72.4688 31.6641L45.8281 63.1094L29.5625 47.9375L26.8359 50.8672L46.1641 68.8984L75.5312 34.25L72.4688 31.6641Z" fill="#6B7280"/>
</svg>
