<svg width="100" height="100" viewBox="0 0 100 100" fill="none" xmlns="http://www.w3.org/2000/svg">
<path d="M85.7499 17.2499C85.6874 17.2656 85.6249 17.289 85.5624 17.3124C85.039 17.4453 84.5859 17.7812 84.3124 18.2499L43.4374 81.6249L15.3124 56.2499C14.8203 55.6249 13.9999 55.3515 13.2265 55.5546C12.4531 55.7578 11.8828 56.4062 11.7656 57.1953C11.6484 57.9843 12.0078 58.7656 12.6874 59.1874L42.4999 86.1874C42.9374 86.5703 43.5234 86.7421 44.1015 86.6562C44.6796 86.5703 45.1874 86.2421 45.4999 85.7499L87.6874 20.3749C88.1484 19.7187 88.1718 18.8515 87.7499 18.1718C87.3281 17.4921 86.539 17.1328 85.7499 17.2499Z" fill="#6B7280"/>
</svg>
