<svg width="100" height="100" viewBox="0 0 100 100" fill="none" xmlns="http://www.w3.org/2000/svg">
<path d="M49.8125 1.93726C49.7266 1.95288 49.6406 1.97632 49.5625 1.99976C48.6328 2.2107 47.9766 3.04663 48 3.99976V65.1248L35.4375 52.5623C34.9531 52.0623 34.2422 51.8513 33.5625 51.9998C32.8125 52.1326 32.2109 52.6794 32 53.406C31.7891 54.1404 32.0078 54.9216 32.5625 55.4373L48.5625 71.4373L50 72.8123L51.4375 71.4373L67.4375 55.4373C68.2344 54.6404 68.2344 53.3591 67.4375 52.5623C66.6406 51.7654 65.3594 51.7654 64.5625 52.5623L52 65.1248V3.99976C52.0234 3.42163 51.7891 2.86695 51.375 2.47632C50.9531 2.07788 50.3828 1.88257 49.8125 1.93726ZM14 31.9998V99.9998H86V31.9998H66C65.2812 31.9919 64.6094 32.3669 64.2422 32.9919C63.8828 33.6169 63.8828 34.3826 64.2422 35.0076C64.6094 35.6326 65.2812 36.0076 66 35.9998H82V95.9998H18V35.9998H34C34.7188 36.0076 35.3906 35.6326 35.7578 35.0076C36.1172 34.3826 36.1172 33.6169 35.7578 32.9919C35.3906 32.3669 34.7188 31.9919 34 31.9998H14Z" fill="#6B7280"/>
</svg>
