<svg width="100" height="100" viewBox="0 0 100 100" fill="none" xmlns="http://www.w3.org/2000/svg">
<path d="M14 4V96H74.5938L71.1914 92H18V8H56V33.9688H82V58H86V31.1992L85.4883 30.6875C85.4159 30.6002 85.3362 30.5191 85.25 30.4453L58.8008 4H14ZM60 10.8008L79.168 29.9688H60V10.8008ZM36.9219 46C32.7239 46 27.9297 49.2525 27.9297 58.3125C27.9297 65.5905 31.0065 70 36.3945 70C37.9345 70 39.1594 69.7562 39.8594 69.4062L39.4062 66.2578C38.8463 66.4658 37.9717 66.6797 37.0977 66.6797C34.2637 66.6797 31.8828 64.4023 31.8828 58.0703C31.8828 51.6323 34.5046 49.2891 37.0586 49.2891C38.1786 49.2891 38.7408 49.4953 39.3008 49.7773L40 46.5938C39.542 46.3117 38.4619 46 36.9219 46ZM56.9023 46L62.3125 70H66.4805L72 46H67.8711L65.9453 56.6836C65.4453 59.4616 64.9137 62.5226 64.5938 65.4766H64.4844C64.1284 62.5586 63.5245 59.3899 63.0625 56.7539L61.0703 46H56.9023ZM50.7656 46.0039C46.3556 46.0039 43.8711 48.9041 43.8711 52.5781C43.8711 55.1321 45.6924 57.4743 48.3164 59.1523C50.2424 60.4843 51.3945 61.569 51.3945 63.457C51.3945 65.419 50.1342 66.75 47.8242 66.75C46.5982 66.75 45.0615 66.3287 44.1875 65.8047L43.5547 69.0234C44.2907 69.5154 46.0742 70.0039 47.8242 70.0039C52.0602 70.0039 55.0664 67.3082 55.0664 63.0742C55.0664 60.5562 53.8802 58.2822 50.9062 56.3242C48.4902 54.7862 47.5469 53.945 47.5469 52.125C47.5469 50.687 48.5613 49.2578 50.6953 49.2578C51.9553 49.2578 52.9396 49.6386 53.6016 50.0586L54.2656 46.8438C53.6376 46.4577 52.2676 46.0039 50.7656 46.0039ZM76 62V80H66L82.9922 100L100 80H90V62H76ZM80 66H86V84H91.1992L82.9922 94L74.8008 84H80V66Z" fill="#6B7280"/>
</svg>
