<svg width="100" height="100" viewBox="0 0 100 100" fill="none" xmlns="http://www.w3.org/2000/svg">
<path d="M16.7825 80V37.075H26.8989V80H16.7825ZM21.8687 30.9828C20.2664 30.9828 18.8877 30.4518 17.7326 29.3898C16.5775 28.3093 16 27.0144 16 25.5054C16 23.9776 16.5775 22.6828 17.7326 21.6209C18.8877 20.5403 20.2664 20 21.8687 20C23.4895 20 24.8682 20.5403 26.0047 21.6209C27.1598 22.6828 27.7373 23.9776 27.7373 25.5054C27.7373 27.0144 27.1598 28.3093 26.0047 29.3898C24.8682 30.4518 23.4895 30.9828 21.8687 30.9828Z" fill="#55AB26"/>
<path d="M56.8818 78.6162H37.4873V21.3828H57.273C62.9554 21.3828 67.8366 22.5286 71.9167 24.8202C76.0155 27.0931 79.164 30.3628 81.3625 34.6292C83.5609 38.8956 84.6601 44.0004 84.6601 49.9436C84.6601 55.9054 83.5516 61.0289 81.3345 65.3139C79.1361 69.599 75.9596 72.8873 71.8049 75.1788C67.6689 77.4704 62.6946 78.6162 56.8818 78.6162ZM47.8553 69.6455H56.3788C60.3657 69.6455 63.6913 68.9189 66.3555 67.4657C69.0197 65.9939 71.0225 63.8048 72.3639 60.8984C73.7053 57.9734 74.376 54.3218 74.376 49.9436C74.376 45.5654 73.7053 41.9324 72.3639 39.0447C71.0225 36.1383 69.0383 33.9678 66.4114 32.5333C63.8031 31.0801 60.5613 30.3535 56.6862 30.3535H47.8553V69.6455Z" fill="white"/>
</svg>
