<svg width="100" height="100" viewBox="0 0 100 100" fill="none" xmlns="http://www.w3.org/2000/svg">
<path d="M74 0L72.8008 6.39844C72.2008 6.59844 71.4008 6.79922 70.8008 7.19922L65.3984 3.39844L59.3984 9.39844L63 14.3984C62.8 15.1984 62.3992 15.8016 62.1992 16.6016L56 17.6016V26L62.1992 27C62.3992 27.6 62.6 28.4 63 29L59.3984 34.3984L65.3984 40.3984L70.8008 36.8008C71.6008 37.2008 72.2 37.4016 73 37.6016L74 44H82.1992L83.3984 37.8008C83.9984 37.6008 84.5984 37.4 85.3984 37L90.8008 40.6016L96.8008 34.6016L93 29.3984C93.4 28.5984 93.6008 27.7992 93.8008 27.1992L100 26V17.6016L93.6016 16.6016C93.4016 16.0016 93.2008 15.2016 92.8008 14.6016L96.3984 9.19922L90.6016 3.39844L85.3984 7.19922C84.7984 6.79922 83.9984 6.59844 83.3984 6.39844L82.3984 0H74ZM77.3984 4H79L79.8008 9.39844L81 9.80078C82.2 10.2008 83.3984 10.5992 84.3984 11.1992L85.6016 12L90.1992 8.60156L91.1992 9.60156L88 14.1992L88.6016 15.1992C89.2016 16.3992 89.6 17.6008 90 18.8008L90.3984 20L96 20.8008V22.3984L90.6016 23.6016L90.1992 24.8008C89.7992 26.0008 89.4008 27.1992 88.8008 28.1992L88 29.3984L91.3984 34L90.1992 35.1992L85.6016 32L84.6016 32.6016C83.4016 33.2016 82.2 33.6 81 34L79.8008 34.3984L78.8008 40H77.1992L76.3984 34.6016L75.1992 34.1992C73.9992 33.7992 72.8008 33.4008 71.8008 32.8008L70.6016 32L65.8008 35.1992L64.6016 34L67.8008 29.3984L67.1992 28.3984C66.5992 27.1984 66.2008 25.8008 65.8008 24.8008L65.3984 23.6016L60 22.6016V21L65.6016 20L65.8008 18.6016C66.0008 17.6016 66.4 16.3984 67 15.3984L67.8008 14.3984L64.6016 9.80078L65.8008 8.60156L70.3984 11.8008L71.3984 11.3984C72.7984 10.7984 73.9992 10.2008 75.1992 9.80078L76.3984 9.60156L77.3984 4ZM78 13.8008C73.6 13.8008 70 17.4008 70 21.8008C70 26.2008 73.6 29.8008 78 29.8008C82.4 29.8008 86 26.4008 86 21.8008C86 17.4008 82.4 13.8008 78 13.8008ZM16 16C11.588 16 8 19.588 8 24V68C8 69.4644 8.42376 70.8182 9.11328 72H4C3.46958 72.0001 2.96091 72.2108 2.58584 72.5858C2.21078 72.9609 2.00005 73.4696 2 74C2 79.499 6.50097 84 12 84H88C93.499 84 98 79.499 98 74C97.9999 73.4696 97.7892 72.9609 97.4142 72.5858C97.0391 72.2108 96.5304 72.0001 96 72H90.8867C91.5762 70.8182 92 69.4644 92 68V43.8867C90.734 44.6987 89.404 45.416 88 46V68C88 70.206 86.206 72 84 72H16C13.794 72 12 70.206 12 68V24C12 21.794 13.794 20 16 20H52.1016C52.2056 18.634 52.4167 17.3 52.7227 16H16ZM78 18C80.2 18 82 19.6 82 22C82 24.2 80.2 26 78 26C75.8 26 74 24.2 74 22C74 19.8 75.8 18 78 18ZM6.82422 76H16H84H93.1758C92.3016 78.2249 90.5517 80 88 80H12C9.4483 80 7.69839 78.2249 6.82422 76Z" fill="#6B7280"/>
</svg>
