<svg width="100" height="100" viewBox="0 0 100 100" fill="none" xmlns="http://www.w3.org/2000/svg">
<path d="M50 2C47.8516 2 45.7109 2.21094 44 2.625C43.1406 2.82813 42.4453 3.05469 41.75 3.4375C41.3984 3.625 41.0312 3.875 40.6875 4.25C40.5078 4.45313 40.3203 4.74219 40.1875 5.0625C38.9219 5.33594 37.6641 5.6875 36.4375 6.0625C35.4922 5.67969 32.2969 4.45313 27.9375 4.1875C27.2969 4.14844 26.625 4.11719 25.9375 4.125C21.1484 4.19531 15.5 5.625 10.5625 10.5625C0.046875 21.0781 5.29688 34.6875 6.0625 36.5C5.69531 37.7109 5.33594 38.9375 5.0625 40.1875C4.74219 40.3203 4.45313 40.5078 4.25 40.6875C3.875 41.0312 3.625 41.3984 3.4375 41.75C3.05469 42.4453 2.82813 43.1406 2.625 44C2.21094 45.7109 2 47.8516 2 50C2 52.1484 2.21094 54.2891 2.625 56C2.82813 56.8594 3.05469 57.5547 3.4375 58.25C3.625 58.6016 3.875 58.9688 4.25 59.3125C4.45313 59.4922 4.74219 59.6797 5.0625 59.8125C5.33594 61.0703 5.6875 62.2812 6.0625 63.5C5.29688 65.3125 0.046875 78.9219 10.5625 89.4375C21.0781 99.9531 34.6875 94.7031 36.5 93.9375C37.6875 94.3047 38.8984 94.6094 40.125 94.875C40.2578 95.2344 40.4922 95.5312 40.6875 95.75C41.0312 96.125 41.3984 96.375 41.75 96.5625C42.4453 96.9453 43.1406 97.1719 44 97.375C45.7109 97.7891 47.8516 98 50 98C52.1484 98 54.2891 97.7891 56 97.375C56.8594 97.1719 57.5547 96.9453 58.25 96.5625C58.6016 96.375 58.9688 96.125 59.3125 95.75C59.4922 95.5469 59.6797 95.2578 59.8125 94.9375C61.0625 94.6641 62.2891 94.3125 63.5 93.9375C65.3125 94.7031 78.9219 99.9531 89.4375 89.4375C99.8438 79.0312 94.7891 65.6094 93.9375 63.5625C94.3203 62.3359 94.6641 61.0859 94.9375 59.8125C95.2578 59.6797 95.5469 59.4922 95.75 59.3125C96.125 58.9688 96.375 58.6016 96.5625 58.25C96.9453 57.5547 97.1719 56.8594 97.375 56C97.7891 54.2891 98 52.1484 98 50C98 47.8516 97.7891 45.7109 97.375 44C97.1719 43.1406 96.9453 42.4453 96.5625 41.75C96.375 41.3984 96.125 41.0312 95.75 40.6875C95.5469 40.5078 95.2578 40.3203 94.9375 40.1875C94.6641 38.9297 94.3125 37.7188 93.9375 36.5C94.7031 34.6875 99.9531 21.0781 89.4375 10.5625C84.5 5.625 78.8516 4.19531 74.0625 4.125C73.375 4.11719 72.7031 4.14844 72.0625 4.1875C67.6016 4.45313 64.3438 5.71875 63.5 6.0625C62.2969 5.69531 61.0625 5.33594 59.8125 5.0625C59.6797 4.74219 59.4922 4.45313 59.3125 4.25C58.9688 3.875 58.6016 3.625 58.25 3.4375C57.5547 3.05469 56.8594 2.82813 56 2.625C54.2891 2.21094 52.1484 2 50 2ZM50 6C51.8516 6 53.7109 6.1875 55 6.5C55.4688 6.61719 55.75 6.77344 56 6.875V26.25C55.6875 26.7578 55.625 27.375 55.8125 27.9375C55.1875 27.7188 53.5078 27.1875 50 27.1875C46.2891 27.1875 44.5938 27.8125 44.0625 28C44.2734 27.4766 44.25 26.8828 44 26.375V7.75C44.2109 7.45313 44.3438 7.10938 44.375 6.75C44.5625 6.66406 44.7031 6.57031 45 6.5C46.2891 6.1875 48.1484 6 50 6ZM26.1875 8.0625C27.75 8.03906 29.1797 8.14063 30.4375 8.375C20.7734 12.9297 12.9297 20.7109 8.375 30.375C7.57031 25.9453 7.6875 19.1875 13.4375 13.4375C17.5781 9.29688 22.2422 8.11719 26.1875 8.0625ZM72.1875 8.0625C76.4297 7.78906 81.8359 8.71094 86.5625 13.4375C92.3438 19.2188 92.4453 26.0078 91.625 30.4375C87.0781 20.7812 79.2812 12.9297 69.625 8.375C70.4141 8.23438 71.2734 8.125 72.1875 8.0625ZM40 9.1875V26C33.6875 28.6328 28.6953 33.6875 26.0625 40H9.1875C12.8906 24.8359 24.8359 12.8906 40 9.1875ZM60 9.25C75.1406 12.9531 87.0469 24.8594 90.75 40H74C71.3672 33.6875 66.3125 28.7031 60 26.0625V9.25ZM40.625 30.125C41.3359 31.2578 42.5859 32 44 32C44.2578 32.0078 44.5078 31.9609 44.75 31.875C44.75 31.875 46.2734 31.1875 50 31.1875C53.7266 31.1875 55.25 31.875 55.25 31.875C55.4922 31.9609 55.7422 32.0078 56 32C57.4141 32 58.6641 31.2578 59.375 30.125C63.9844 32.3047 67.6953 36.0156 69.875 40.625C68.7422 41.3359 68 42.5859 68 44C67.9922 44.2578 68.0391 44.5078 68.125 44.75C68.125 44.75 68.8125 46.2734 68.8125 50C68.8125 53.7266 68.125 55.25 68.125 55.25C68.0391 55.4922 67.9922 55.7422 68 56C68 57.4141 68.7422 58.6641 69.875 59.375C67.6953 63.9766 63.9922 67.7031 59.375 69.875C58.6641 68.7422 57.4141 68 56 68C55.7422 67.9922 55.4922 68.0391 55.25 68.125C55.25 68.125 53.7266 68.8125 50 68.8125C46.2734 68.8125 44.75 68.125 44.75 68.125C44.5078 68.0391 44.2578 67.9922 44 68C42.5703 68 41.3359 68.7812 40.625 69.9375C36.0312 67.7578 32.2969 63.9844 30.125 59.375C31.2578 58.6641 32 57.4141 32 56C32.0078 55.7422 31.9609 55.4922 31.875 55.25C31.875 55.25 31.1875 53.7266 31.1875 50C31.1875 46.2734 31.875 44.75 31.875 44.75C31.9609 44.5078 32.0078 44.2578 32 44C32 42.6094 31.2891 41.3438 30.1875 40.625C32.3594 36.0234 36.0156 32.2969 40.625 30.125ZM7.1875 44H28C27.8281 44.4844 27.1875 46.2031 27.1875 50C27.1875 53.5078 27.7188 55.1875 27.9375 55.8125C27.6406 55.6953 27.3203 55.6562 27 55.6875C26.6875 55.7188 26.3906 55.8281 26.125 56H6.875C6.77344 55.75 6.61719 55.4688 6.5 55C6.1875 53.7109 6 51.8516 6 50C6 48.1484 6.1875 46.2891 6.5 45C6.60938 44.5547 6.77344 44.2969 6.875 44.0625C6.98438 44.0469 7.08594 44.0312 7.1875 44ZM72 44H93.125C93.2266 44.25 93.3828 44.5312 93.5 45C93.8125 46.2891 94 48.1484 94 50C94 51.8516 93.8125 53.7109 93.5 55C93.4141 55.3516 93.3438 55.5469 93.25 55.75C93.1875 55.75 93.125 55.75 93.0625 55.75C92.7969 55.7812 92.5469 55.8672 92.3125 56H72C72.1719 55.5156 72.8125 53.7969 72.8125 50C72.8125 46.2031 72.1719 44.4844 72 44ZM9.25 60H26.0625C28.6953 66.2969 33.6953 71.3047 40 73.9375V90.75C24.8594 87.0391 12.9531 75.1484 9.25 60ZM73.9375 60H90.8125C87.1094 75.1719 75.1719 87.1094 60 90.8125V74C66.2969 71.3594 71.3047 66.3047 73.9375 60ZM91.625 69.5625C92.4453 73.9922 92.3438 80.7812 86.5625 86.5625C80.7812 92.3438 73.9922 92.4453 69.5625 91.625C79.2422 87.0703 87.0625 79.2266 91.625 69.5625ZM8.375 69.625C12.9375 79.2734 20.7734 87.0859 30.4375 91.625C26.0078 92.4453 19.2188 92.3438 13.4375 86.5625C7.6875 80.8125 7.57031 74.0547 8.375 69.625ZM56 72C55.8359 72.4453 55.8359 72.9297 56 73.375V92.4375C55.8906 92.6719 55.8281 92.9297 55.8125 93.1875C55.5938 93.2812 55.3828 93.4062 55 93.5C53.7109 93.8125 51.8516 94 50 94C48.1484 94 46.2891 93.8125 45 93.5C44.6484 93.4141 44.4531 93.3438 44.25 93.25C44.2422 92.9219 44.1562 92.6016 44 92.3125V73.9375C44.3906 73.3906 44.4844 72.6875 44.25 72.0625C44.9141 72.2891 46.5781 72.8125 50 72.8125C53.7969 72.8125 55.5156 72.1719 56 72Z" fill="#6B7280"/>
</svg>
