<svg width="100" height="100" viewBox="0 0 100 100" fill="none" xmlns="http://www.w3.org/2000/svg">
<path d="M49.8125 1.93726C49.7266 1.95288 49.6407 1.97632 49.5625 1.99976C48.6329 2.2107 47.9766 3.04663 48 3.99976V11.9998C47.9922 12.7185 48.3672 13.3904 48.9922 13.7576C49.6172 14.1169 50.3829 14.1169 51.0079 13.7576C51.6329 13.3904 52.0079 12.7185 52 11.9998V3.99976C52.0235 3.42163 51.7891 2.86695 51.375 2.47632C50.9532 2.07788 50.3829 1.88257 49.8125 1.93726ZM20.0625 14.2498C20 14.2654 19.9375 14.2888 19.875 14.3123C19.1563 14.4607 18.5782 14.9998 18.3672 15.7029C18.1563 16.406 18.3516 17.1716 18.875 17.6873L24.5625 23.3748C25.0469 23.9685 25.8204 24.2419 26.5704 24.0701C27.3125 23.8982 27.8985 23.3123 28.0704 22.5701C28.2422 21.8201 27.9688 21.0466 27.375 20.5623L21.6875 14.8748C21.3125 14.4763 20.7969 14.2576 20.25 14.2498C20.1875 14.2498 20.125 14.2498 20.0625 14.2498ZM79.5 14.2498C79.4141 14.2654 79.3282 14.2888 79.25 14.3123C78.8907 14.406 78.5704 14.6013 78.3125 14.8748L72.625 20.5623C72.0313 21.0466 71.7579 21.8201 71.9297 22.5701C72.1016 23.3123 72.6875 23.8982 73.4297 24.0701C74.1797 24.2419 74.9532 23.9685 75.4375 23.3748L81.125 17.6873C81.75 17.0935 81.9297 16.1638 81.5625 15.3826C81.1875 14.5935 80.3594 14.1404 79.5 14.2498ZM50 17.9998C34.5625 17.9998 22 30.5623 22 45.9998C22 55.781 26.3829 62.3513 30.5 67.1873C32.5625 69.6013 34.5547 71.6482 35.9375 73.4373C37.3204 75.2263 38 76.656 38 77.9998V85.0623C37.7344 85.6169 37.7344 86.2576 38 86.8123V87.9998C38 91.2888 40.711 93.9998 44 93.9998H45.5625C46.6641 95.2185 48.2344 95.9998 50 95.9998C51.7657 95.9998 53.336 95.2185 54.4375 93.9998H56C59.2891 93.9998 62 91.2888 62 87.9998V86.3748C62.0547 86.1091 62.0547 85.8279 62 85.5623V77.9998C62 76.656 62.6797 75.2107 64.0625 73.4373C65.4454 71.6638 67.4375 69.656 69.5 67.2498C73.6172 62.4373 78 55.8669 78 45.9998C78 30.5623 65.4375 17.9998 50 17.9998ZM50 21.9998C63.2813 21.9998 74 32.7185 74 45.9998C74 54.7185 70.3829 60.156 66.5 64.6873C64.5625 66.9529 62.5547 68.9294 60.9375 70.9998C59.75 72.5232 58.8985 74.1873 58.4375 75.9998H41.5625C41.1016 74.1873 40.25 72.531 39.0625 70.9998C37.4454 68.9138 35.4375 66.906 33.5 64.6248C29.6172 60.0701 26 54.6248 26 45.9998C26 32.7185 36.7188 21.9998 50 21.9998ZM7.43755 43.9998C6.33599 44.156 5.56255 45.1794 5.7188 46.281C5.87505 47.3826 6.89849 48.156 8.00005 47.9998H16C16.7188 48.0076 17.3907 47.6326 17.7579 47.0076C18.1172 46.3826 18.1172 45.6169 17.7579 44.9919C17.3907 44.3669 16.7188 43.9919 16 43.9998H8.00005C7.93755 43.9998 7.87505 43.9998 7.81255 43.9998C7.75005 43.9998 7.68755 43.9998 7.62505 43.9998C7.56255 43.9998 7.50005 43.9998 7.43755 43.9998ZM83.4375 43.9998C82.336 44.156 81.5625 45.1794 81.7188 46.281C81.875 47.3826 82.8985 48.156 84 47.9998H92C92.7188 48.0076 93.3907 47.6326 93.7579 47.0076C94.1172 46.3826 94.1172 45.6169 93.7579 44.9919C93.3907 44.3669 92.7188 43.9919 92 43.9998H84C83.9375 43.9998 83.875 43.9998 83.8125 43.9998C83.75 43.9998 83.6875 43.9998 83.625 43.9998C83.5625 43.9998 83.5 43.9998 83.4375 43.9998ZM25.75 67.9998C25.2969 68.0623 24.875 68.2888 24.5625 68.6248L18.875 74.3123C18.2813 74.7966 18.0079 75.5701 18.1797 76.3201C18.3516 77.0623 18.9375 77.6482 19.6797 77.8201C20.4297 77.9919 21.2032 77.7185 21.6875 77.1248L27.375 71.4373C27.9688 70.8669 28.1485 69.9841 27.8282 69.2263C27.5157 68.4685 26.7579 67.9841 25.9375 67.9998C25.875 67.9998 25.8125 67.9998 25.75 67.9998ZM73.625 67.9998C72.875 68.1326 72.2735 68.6794 72.0625 69.406C71.8516 70.1404 72.0704 70.9216 72.625 71.4373L78.3125 77.1248C78.7969 77.7185 79.5704 77.9919 80.3204 77.8201C81.0625 77.6482 81.6485 77.0623 81.8204 76.3201C81.9922 75.5701 81.7188 74.7966 81.125 74.3123L75.4375 68.6248C75.0625 68.2263 74.5469 68.0076 74 67.9998C73.9375 67.9998 73.875 67.9998 73.8125 67.9998C73.75 67.9998 73.6875 67.9998 73.625 67.9998ZM42 79.9998H58V83.9998H48C47.9375 83.9998 47.875 83.9998 47.8125 83.9998C47.75 83.9998 47.6875 83.9998 47.625 83.9998C46.5235 84.1013 45.711 85.0857 45.8125 86.1873C45.9141 87.2888 46.8985 88.1013 48 87.9998H58C58 89.1326 57.1329 89.9998 56 89.9998H44C42.8672 89.9998 42 89.1326 42 87.9998C42.7188 88.0076 43.3907 87.6326 43.7579 87.0076C44.1172 86.3826 44.1172 85.6169 43.7579 84.9919C43.3907 84.3669 42.7188 83.9919 42 83.9998V79.9998Z" fill="#6B7280"/>
</svg>
