<svg width="100" height="100" viewBox="0 0 100 100" fill="none" xmlns="http://www.w3.org/2000/svg">
<path d="M67.9688 3.97268C67.8719 3.97478 67.7753 3.98392 67.6797 4.00003H40V40H14V96H60V60H86V22.336C86.0357 22.12 86.0357 21.8996 86 21.6836V21.1719L85.6133 20.7852C85.5076 20.646 85.3842 20.5212 85.2461 20.4141C85.2422 20.4115 85.2383 20.4089 85.2344 20.4063L69.582 4.75393C69.4742 4.61284 69.3481 4.48673 69.207 4.37893L68.8281 4.00003H68.3086C68.1963 3.98126 68.0826 3.97211 67.9688 3.97268ZM44 8.00003H66V24H82V56H58.8242L55.4141 52.586L52.5859 55.4141L56 58.8321V92H18V44H41.3359L44.625 47.2891L47.4531 44.461L44 41.0078V8.00003ZM70 10.8282L79.1719 20H70V10.8282ZM66.5859 30.586L58.5859 38.586L54 34V46H66L61.4141 41.4141L69.4141 33.4141L66.5859 30.586ZM34 54L38.5859 58.586L30.5859 66.586L33.4141 69.4141L41.4141 61.4141L46 66V54H34Z" fill="#6B7280"/>
</svg>
