<svg width="100" height="100" viewBox="0 0 100 100" fill="none" xmlns="http://www.w3.org/2000/svg">
<path d="M12 38C9.81387 38 8 39.8139 8 42V58C8 60.1861 9.81387 62 12 62H28C30.1861 62 32 60.1861 32 58V42C32 39.8139 30.1861 38 28 38H12ZM42 38C39.8139 38 38 39.8139 38 42V58C38 60.1861 39.8139 62 42 62H58C60.1861 62 62 60.1861 62 58V42C62 39.8139 60.1861 38 58 38H42ZM72 38C69.8139 38 68 39.8139 68 42V58C68 60.1861 69.8139 62 72 62H88C90.1861 62 92 60.1861 92 58V42C92 39.8139 90.1861 38 88 38H72ZM12 42H28V58H12V42ZM42 42H58V58H42V42ZM72 42H88V58H72V42Z" fill="#6B7280"/>
</svg>
