<svg width="100" height="100" viewBox="0 0 100 100" fill="none" xmlns="http://www.w3.org/2000/svg">
<path d="M11.6016 10C8.5349 10 6 12.5349 6 15.6016V26V28V88C6 89.106 6.896 90 8 90H54V86H10V28H90V54H94V26V15.6016C94 12.5349 91.4651 10 88.3984 10H11.6016ZM11.6016 14H88.3984C89.3318 14 90 14.6682 90 15.6016V24H10V15.6016C10 14.6682 10.6682 14 11.6016 14ZM20 40C19.4696 40 18.9609 40.2107 18.5858 40.5858C18.2107 40.9609 18 41.4696 18 42C18 42.5304 18.2107 43.0391 18.5858 43.4142C18.9609 43.7893 19.4696 44 20 44C20.5304 44 21.0391 43.7893 21.4142 43.4142C21.7893 43.0391 22 42.5304 22 42C22 41.4696 21.7893 40.9609 21.4142 40.5858C21.0391 40.2107 20.5304 40 20 40ZM30 40V44H80V40H30ZM20 54C19.4696 54 18.9609 54.2107 18.5858 54.5858C18.2107 54.9609 18 55.4696 18 56C18 56.5304 18.2107 57.0391 18.5858 57.4142C18.9609 57.7893 19.4696 58 20 58C20.5304 58 21.0391 57.7893 21.4142 57.4142C21.7893 57.0391 22 56.5304 22 56C22 55.4696 21.7893 54.9609 21.4142 54.5858C21.0391 54.2107 20.5304 54 20 54ZM30 54V58H62V54H30ZM79 56L73.543 61.2617L66.0234 60.1992L64.7109 67.6523L58 71.1992L61.3359 78L58 84.7969L64.7109 88.3438L66.0234 95.7969L73.543 94.7383L79 100L84.457 94.7383L91.9766 95.8008L93.2891 88.3477L100 84.8008L96.6641 78L100 71.2031L93.2891 67.6562L91.9766 60.2031L84.457 61.2617L79 56ZM78.9961 61.5664L81.6641 64.1367L83.0781 65.4961L85.0195 65.2227L88.6953 64.707L89.3359 68.3477L89.6758 70.2734L91.4062 71.1914L94.6875 72.9219L93.0547 76.2422L92.1953 78L93.0586 79.7578L94.6875 83.082L91.4062 84.8164L89.6719 85.7305L89.332 87.6562L88.6914 91.3008L85.0195 90.7812L83.0742 90.5078L81.6641 91.8672L78.9961 94.4375L76.3281 91.8672L74.9141 90.5078L72.9727 90.7812L69.3008 91.2969L68.6602 87.6562L68.3203 85.7305L66.5859 84.8125L63.3086 83.0781L64.9375 79.7578L65.8047 78L64.9414 76.2422L63.3125 72.918L66.5938 71.1836L68.3242 70.2695L68.6641 68.3438L69.3047 64.6992L72.9805 65.2188L74.9219 65.4922L76.3359 64.1328L78.9961 61.5664ZM20 68C19.4696 68 18.9609 68.2107 18.5858 68.5858C18.2107 68.9609 18 69.4696 18 70C18 70.5304 18.2107 71.0391 18.5858 71.4142C18.9609 71.7893 19.4696 72 20 72C20.5304 72 21.0391 71.7893 21.4142 71.4142C21.7893 71.0391 22 70.5304 22 70C22 69.4696 21.7893 68.9609 21.4142 68.5858C21.0391 68.2107 20.5304 68 20 68ZM30 68V72H54V68H30Z" fill="#6B7280"/>
</svg>
