<svg width="100" height="100" viewBox="0 0 100 100" fill="none" xmlns="http://www.w3.org/2000/svg">
<path d="M50 4C24.6172 4 4 24.6172 4 50C4 75.3828 24.6172 96 50 96C75.3828 96 96 75.3828 96 50C96 24.6172 75.3828 4 50 4ZM50 8C73.2188 8 92 26.7812 92 50C92 73.2188 73.2188 92 50 92C26.7812 92 8 73.2188 8 50C8 26.7812 26.7812 8 50 8ZM43.8125 27.9375C43.7266 27.9531 43.6406 27.9766 43.5625 28C42.8125 28.1328 42.2109 28.6797 42 29.4062C41.7891 30.1406 42.0078 30.9219 42.5625 31.4375L61.125 50L42.5625 68.5625C41.7656 69.3594 41.7656 70.6406 42.5625 71.4375C43.3594 72.2344 44.6406 72.2344 45.4375 71.4375L65.4375 51.4375C65.8281 51.0625 66.0469 50.5391 66.0469 50C66.0469 49.4609 65.8281 48.9375 65.4375 48.5625L45.4375 28.5625C45.0234 28.1172 44.4219 27.8906 43.8125 27.9375Z" fill="#6B7280"/>
</svg>
