<svg width="100" height="100" viewBox="0 0 100 100" fill="none" xmlns="http://www.w3.org/2000/svg">
<path d="M10 8C6.71006 8 4 10.7101 4 14V32V52V86C4 89.2899 6.71006 92 10 92H90C93.2899 92 96 89.2899 96 86V22C96 18.7101 93.2899 16 90 16H36C36.1731 16 35.938 16.0007 35.4492 15.4375C34.9605 14.8743 34.3588 13.9399 33.7305 12.9375C33.1021 11.9351 32.4436 10.8656 31.6133 9.92578C30.783 8.98598 29.6375 8 28 8H10ZM10 12H28C27.8785 12 28.1223 12.014 28.6172 12.5742C29.1121 13.1344 29.7145 14.0649 30.3398 15.0625C30.9652 16.0601 31.6129 17.1257 32.4258 18.0625C33.2387 18.9993 34.3579 20 36 20H90C91.1301 20 92 20.8699 92 22V26.375C91.3702 26.1479 90.7037 26 90 26H10C9.29632 26 8.62978 26.1479 8 26.375V14C8 12.8699 8.86994 12 10 12ZM10 30H90C91.1301 30 92 30.8699 92 32V86C92 87.1301 91.1301 88 90 88H10C8.86994 88 8 87.1301 8 86V32C8 30.8699 8.86994 30 10 30ZM74 40C72.4087 40 70.8826 40.6321 69.7574 41.7574C68.6321 42.8826 68 44.4087 68 46C68 47.5913 68.6321 49.1174 69.7574 50.2426C70.8826 51.3679 72.4087 52 74 52C75.5913 52 77.1174 51.3679 78.2426 50.2426C79.3679 49.1174 80 47.5913 80 46C80 44.4087 79.3679 42.8826 78.2426 41.7574C77.1174 40.6321 75.5913 40 74 40ZM40.0586 48C39.7718 47.9919 39.4866 48.0457 39.2224 48.1576C38.9582 48.2694 38.7211 48.4369 38.5273 48.6484L16.5273 72.6484C16.3384 72.8397 16.19 73.0671 16.091 73.317C15.9919 73.567 15.9443 73.8343 15.9509 74.103C15.9575 74.3718 16.0182 74.6365 16.1294 74.8812C16.2406 75.126 16.3999 75.3458 16.598 75.5276C16.7961 75.7094 17.0287 75.8494 17.2821 75.9392C17.5355 76.029 17.8044 76.0668 18.0727 76.0504C18.3411 76.034 18.6033 75.9636 18.8439 75.8436C19.0844 75.7235 19.2983 75.5562 19.4727 75.3516L40 52.957L54.4531 68.7188L48.5859 74.5859C48.394 74.7702 48.2407 74.991 48.1352 75.2352C48.0296 75.4795 47.9738 75.7423 47.9711 76.0084C47.9684 76.2745 48.0188 76.5385 48.1194 76.7848C48.22 77.0312 48.3687 77.255 48.5569 77.4431C48.745 77.6313 48.9688 77.78 49.2152 77.8806C49.4615 77.9812 49.7255 78.0316 49.9916 78.0289C50.2577 78.0262 50.5205 77.9704 50.7648 77.8648C51.009 77.7593 51.2298 77.606 51.4141 77.4141L58.6133 70.2148L66 62.8281L80.5859 77.4141C80.7702 77.606 80.991 77.7593 81.2352 77.8648C81.4795 77.9704 81.7423 78.0262 82.0084 78.0289C82.2745 78.0316 82.5385 77.9812 82.7848 77.8806C83.0312 77.78 83.255 77.6313 83.4431 77.4431C83.6313 77.255 83.78 77.0312 83.8806 76.7848C83.9812 76.5385 84.0316 76.2745 84.0289 76.0084C84.0262 75.7423 83.9704 75.4795 83.8648 75.2352C83.7593 74.991 83.606 74.7702 83.4141 74.5859L67.4141 58.5859C67.2247 58.3965 66.9991 58.247 66.7509 58.1463C66.5026 58.0456 66.2366 57.9959 65.9688 58C65.4492 58.0083 64.9533 58.2184 64.5859 58.5859L57.2812 65.8906L41.4727 48.6484C41.2922 48.4514 41.0741 48.2925 40.8312 48.1811C40.5884 48.0697 40.3257 48.0082 40.0586 48Z" fill="#6B7280"/>
</svg>
