<svg width="100" height="100" viewBox="0 0 100 100" fill="none" xmlns="http://www.w3.org/2000/svg">
<path d="M25.625 14C24.5234 14.1016 23.7109 15.0859 23.8125 16.1875C23.9141 17.2891 24.8984 18.1016 26 18H39.125L4.5625 52.5625C3.76563 53.3594 3.76563 54.6406 4.5625 55.4375C5.35938 56.2344 6.64063 56.2344 7.4375 55.4375L42 20.875V34C41.9922 34.7188 42.3672 35.3906 42.9922 35.7578C43.6172 36.1172 44.3828 36.1172 45.0078 35.7578C45.6328 35.3906 46.0078 34.7188 46 34V14H26C25.9375 14 25.875 14 25.8125 14C25.75 14 25.6875 14 25.625 14ZM68 22V100H96V22H68ZM72 26H92V96H72V26ZM36 48V100H64V48H36ZM40 52H60V96H40V52ZM4 70V100H32V70H4ZM8 74H28V96H8V74Z" fill="#6B7280"/>
</svg>
