<svg width="100" height="100" viewBox="0 0 100 100" fill="none" xmlns="http://www.w3.org/2000/svg">
<path d="M1 93.1601C1 96.3614 3.65672 99 6.88 99L93.12 99C96.3433 99 99 96.3614 99 93.1601L99 26.9752C99 23.7739 96.3433 21.1353 93.12 21.1353L77.44 21.1353L81.36 25.0286L93.12 25.0286C94.2225 25.0286 95.08 25.8802 95.08 26.9752L95.08 93.1601C95.08 94.2551 94.2225 95.1068 93.12 95.1068L6.88 95.1068C5.76984 95.1068 4.92 94.2627 4.92 93.1601L4.92 26.9752C4.92 25.8802 5.7775 25.0286 6.88 25.0286L18.64 25.0286L22.56 21.1353L6.88 21.1353C3.65672 21.1353 0.999997 23.7739 0.999997 26.9752L1 93.1601ZM26.6637 25.3327C26.7939 26.0627 27.3298 26.6482 28.0419 26.8535C28.7616 27.0588 29.5272 26.8459 30.0325 26.306L48.04 8.42148L48.04 65.9075C48.04 65.9683 48.04 66.0292 48.04 66.09C48.0936 67.1622 49.0123 67.9986 50.0919 67.9454C51.1714 67.8921 52.0136 66.9797 51.96 65.9075L51.96 8.42148L69.9675 26.306C70.4422 26.8839 71.2002 27.1501 71.9352 26.9828C72.6625 26.8155 73.2367 26.2452 73.4052 25.5228C73.5736 24.7928 73.3056 24.04 72.7238 23.5686L51.4088 2.33831L50 1.00001L48.5913 2.33831L27.2762 23.5686C26.8398 23.9716 26.6178 24.5571 26.6637 25.1502C26.6637 25.2111 26.6637 25.2719 26.6637 25.3327Z" fill="#6B7280"/>
</svg>
