<svg width="100" height="100" viewBox="0 0 100 100" fill="none" xmlns="http://www.w3.org/2000/svg">
<path d="M14 16C8.50781 16 4 20.5078 4 26V74C4 79.4922 8.50781 84 14 84H22.1875C22.4609 86.4062 22.4297 88.6328 21.8125 90.5C21.0547 92.7969 19.6406 94.7266 17 96.3125C16.2578 96.7812 15.9141 97.6797 16.1406 98.5234C16.3672 99.3672 17.125 99.9688 18 100C26.4844 100 36.2109 95.5703 41.125 84H86C91.4922 84 96 79.4922 96 74V26C96 20.5078 91.4922 16 86 16H14ZM14 20H86C89.3125 20 92 22.6875 92 26V74C92 77.3125 89.3125 80 86 80H40C39.1641 80 38.4141 80.5234 38.125 81.3125C35.0156 89.7969 29.4609 93.8359 23.6875 95.3125C24.4688 94.1953 25.2109 93.0156 25.625 91.75C26.6641 88.5938 26.5781 85.1406 25.9375 81.625C25.7578 80.6953 24.9531 80.0156 24 80H14C10.6875 80 8 77.3125 8 74V26C8 22.6875 10.6875 20 14 20ZM30 44C26.7109 44 24 46.7109 24 50C24 53.2891 26.7109 56 30 56C33.2891 56 36 53.2891 36 50C36 46.7109 33.2891 44 30 44ZM50 44C46.7109 44 44 46.7109 44 50C44 53.2891 46.7109 56 50 56C53.2891 56 56 53.2891 56 50C56 46.7109 53.2891 44 50 44ZM70 44C66.7109 44 64 46.7109 64 50C64 53.2891 66.7109 56 70 56C73.2891 56 76 53.2891 76 50C76 46.7109 73.2891 44 70 44ZM30 48C31.125 48 32 48.875 32 50C32 51.125 31.125 52 30 52C28.875 52 28 51.125 28 50C28 48.875 28.875 48 30 48ZM50 48C51.125 48 52 48.875 52 50C52 51.125 51.125 52 50 52C48.875 52 48 51.125 48 50C48 48.875 48.875 48 50 48ZM70 48C71.125 48 72 48.875 72 50C72 51.125 71.125 52 70 52C68.875 52 68 51.125 68 50C68 48.875 68.875 48 70 48Z" fill="#6B7280"/>
</svg>
