<svg width="100" height="100" viewBox="0 0 100 100" fill="none" xmlns="http://www.w3.org/2000/svg">
<path d="M8 4C7.46958 4.00005 6.96091 4.21078 6.58585 4.58584C6.21078 4.96091 6.00005 5.46958 6 6V12C5.99976 12.5095 6.19396 12.9999 6.54297 13.3711L38 46.793V82C38 82.702 38.3667 83.3548 38.9688 83.7148L58.9688 95.7148C59.2868 95.9068 59.644 96 60 96C60.34 96 60.6784 95.9123 60.9844 95.7383C61.1884 95.6223 61.3598 95.465 61.5078 95.293C60.3798 93.931 59.4505 92.4123 58.6445 90.8203L42 80.8672V48H58V70.4219C59.002 68.1219 60.364 66.0182 62 64.1602V46.793L93.2656 13.5742C93.5301 13.3573 93.7345 13.0762 93.8594 12.7578C93.8647 12.7474 93.8699 12.737 93.875 12.7266C94.0061 12.401 94.0492 12.0467 94 11.6992V6C93.9999 5.46958 93.7892 4.96091 93.4142 4.58584C93.0391 4.21078 92.5304 4.00005 92 4H8ZM10 8H90V11.207L59.1367 44H40.8633L10 11.207V8ZM80 60C69 60 60 69 60 80C60 91 69 100 80 100C91 100 100 91 100 80C100 69 91 60 80 60ZM80 64C88.8 64 96 71.2 96 80C96 88.8 88.8 96 80 96C71.2 96 64 88.8 64 80C64 71.2 71.2 64 80 64ZM81.6016 72L74 74.3984V77.1992L78 76.1992V88H82V72H81.6016Z" fill="#6B7280"/>
</svg>
