<svg width="100" height="100" viewBox="0 0 100 100" fill="none" xmlns="http://www.w3.org/2000/svg">
<path d="M49.9694 1.00051C49.3263 1.00817 48.7291 1.33738 48.3692 1.87332L37.5969 18.0279C37.5969 18.0356 37.5969 18.0356 37.5969 18.0356C37.4591 18.2423 36.4025 18.671 36.1652 18.6251L17.1241 14.8123C16.4809 14.6898 15.8148 14.8889 15.3555 15.3559C14.8884 15.8153 14.6894 16.4814 14.8119 17.1245L18.6247 36.1655C18.6706 36.4028 18.2342 37.4594 18.0275 37.5972L1.87281 48.3695C1.32922 48.7293 1 49.3418 1 50.0003C1 50.6587 1.32922 51.2712 1.87281 51.631L18.0275 62.4033C18.0352 62.4033 18.0352 62.4033 18.0352 62.4033C18.2419 62.5411 18.6706 63.5977 18.6247 63.835L14.8119 82.8837C14.6894 83.5191 14.8884 84.1852 15.3555 84.6523C15.8148 85.1116 16.4809 85.3107 17.1241 85.1882L36.1652 81.3754C36.4102 81.3295 37.4591 81.7659 37.5969 81.9726L48.3692 98.1272C48.7291 98.6708 49.3416 99 50 99C50.6584 99 51.2709 98.6708 51.6308 98.1272L62.4031 81.9726C62.4031 81.9649 62.4031 81.9649 62.4031 81.9649C62.5409 81.7582 63.5975 81.3295 63.8348 81.3754L82.8836 85.1882C83.5191 85.3107 84.1852 85.1116 84.6522 84.6446C85.1116 84.1852 85.3106 83.5191 85.1881 82.876L81.3753 63.835C81.3294 63.59 81.7581 62.5411 81.9648 62.4033C81.9648 62.4033 81.9648 62.4033 81.9725 62.4033L98.1272 51.631C98.6708 51.2712 99 50.6587 99 50.0003C99 49.3418 98.6708 48.7293 98.1272 48.3695L81.9725 37.5972C81.9648 37.5972 81.9648 37.5972 81.9648 37.5972C81.7581 37.4594 81.3294 36.4028 81.3753 36.1655L85.1881 17.1245C85.3106 16.4814 85.1116 15.8153 84.6445 15.3482C84.1852 14.8889 83.5191 14.6898 82.8759 14.8123L63.8348 18.6251C63.5898 18.671 62.5409 18.2346 62.4031 18.0279L51.6308 1.87332C51.2633 1.31442 50.6355 0.985199 49.9694 1.00051ZM50 6.49767L59.1416 20.2023C60.3742 22.0551 62.4261 22.9049 64.6005 22.4685L80.7628 19.2376L77.5319 35.3999C77.0955 37.5742 77.9453 39.6261 79.7981 40.8587L93.5105 50.0003L79.7981 59.1418C77.9453 60.3744 77.0955 62.4186 77.5319 64.6006L80.7628 80.7629L64.6005 77.532C62.4261 77.0956 60.3742 77.9454 59.1416 79.7982L50 93.5105L40.8584 79.7982C39.6258 77.9454 37.5739 77.0956 35.3995 77.532L19.2372 80.7629L22.4681 64.6006C22.9045 62.4263 22.0547 60.3744 20.2019 59.1418L6.49719 50.0003L20.2019 40.8587C22.0547 39.6261 22.9045 37.5742 22.4681 35.3999L19.2372 19.2376L35.3995 22.4685C37.5739 22.9049 39.6258 22.0551 40.8584 20.2023L50 6.49767ZM50 24.5204C35.9508 24.5204 24.52 35.9511 24.52 50.0003C24.52 64.0494 35.9508 75.4801 50 75.4801C64.0492 75.4801 75.48 64.0494 75.48 50.0003C75.48 35.9511 64.0492 24.5204 50 24.5204ZM50 28.4404C61.9284 28.4404 71.56 38.0719 71.56 50.0003C71.56 61.9286 61.9284 71.5601 50 71.5601C38.0716 71.5601 28.44 61.9286 28.44 50.0003C28.44 38.0719 38.0716 28.4404 50 28.4404Z" fill="#6B7280"/>
</svg>
