<?xml version="1.0" encoding="UTF-8"?>
<svg id="Layer_2" data-name="Layer 2" xmlns="http://www.w3.org/2000/svg" viewBox="0 0 265.99 112.06">
  <defs>
    <style>
      .cls-1 {
        fill: #55ab26;
      }

      .cls-2 {
        fill: #3c3c3c;
      }
    </style>
  </defs>
  <g id="Layer_1-2" data-name="Layer 1">
    <g>
      <path class="cls-1" d="m88.94,54.85c-21.52-16.96-42.8-31.94-42.8-31.94,44.44,45.41,6.52,6.66,38.9,39.75C5.21,3.84,89.94,66.27,0,0c0,0,29.86,31.87,63.08,63.67,8.19,7.84,18.88,8.7,28.03,5.19.95.97,1.94,1.98,2.98,3.04,1.69-5.93.45-12.64-5.15-17.05Z"/>
      <g>
        <path class="cls-2" d="m110.51,53.07c3.48,0,6.28-2.8,6.28-6.28s-2.8-6.28-6.28-6.28-6.2,2.87-6.2,6.28,2.72,6.28,6.2,6.28Z"/>
        <path class="cls-2" d="m135.09,81.88v-14.14h9.76v-10.44h-9.76v-10.81h-9.91l-.6,7.18c-.3,2.5-1.44,3.63-4.01,3.63h-15.58v39.25h11.12v-28.82h7.87v15.2c0,9.83,5.97,14.37,13.84,14.37,3.33,0,5.37-.23,7.87-.83v-10.36c-1.97.3-3.1.45-5.52.45-2.87,0-5.07-1.21-5.07-4.69Z"/>
        <path class="cls-2" d="m166.51,67.21c3.55,0,6.13,1.74,7.87,4.39l9.53-5.75c-3.63-5.82-9.76-9.38-17.39-9.38-12.18,0-20.95,8.7-20.95,20.5s8.77,20.42,20.95,20.42c7.64,0,13.76-3.55,17.39-9.3l-9.53-5.82c-1.74,2.72-4.31,4.39-7.87,4.39-5.75,0-9.83-4.31-9.83-9.68s4.08-9.76,9.83-9.76Z"/>
        <path class="cls-2" d="m191.61,53.07c3.48,0,6.28-2.8,6.28-6.28s-2.8-6.28-6.28-6.28-6.2,2.87-6.2,6.28,2.72,6.28,6.2,6.28Z"/>
        <path class="cls-2" d="m254.27,57.3l-8.47,21.33h-.15l-8.7-21.33h-20.76v-10.81h-9.91l-.6,7.18c-.3,2.5-1.44,3.63-4.01,3.63h-15.58v39.25h11.12v-28.82h7.87v15.2c0,9.83,5.97,14.37,13.84,14.37,3.33,0,5.37-.23,7.87-.83v-10.36c-1.97.3-3.1.45-5.52.45-2.87,0-5.07-1.21-5.07-4.69v-14.14h9.76v-8.47l13.12,32.44c.53,1.44.6,2.65.08,4.01l-6.2,16.34h11.72l21.33-54.76h-11.72Z"/>
      </g>
    </g>
  </g>
</svg>